solid CATIA STL
  facet normal  0.000000e+000  0.000000e+000  1.000000e+000
    outer loop
      vertex -1.524000e+002 -1.524000e+002  1.270000e+001
      vertex  1.524000e+002 -1.524000e+002  1.270000e+001
      vertex -1.524000e+002  1.524000e+002  1.270000e+001
    endloop
  endfacet
  facet normal  -0.000000e+000  0.000000e+000  1.000000e+000
    outer loop
      vertex -1.524000e+002  1.524000e+002  1.270000e+001
      vertex  1.524000e+002 -1.524000e+002  1.270000e+001
      vertex  1.524000e+002  1.524000e+002  1.270000e+001
    endloop
  endfacet
  facet normal  0.000000e+000  0.000000e+000 -1.000000e+000
    outer loop
      vertex  1.524000e+002 -1.524000e+002  0.000000e+000
      vertex -1.524000e+002 -1.524000e+002  0.000000e+000
      vertex  1.524000e+002  1.524000e+002  0.000000e+000
    endloop
  endfacet
  facet normal  -0.000000e+000  0.000000e+000 -1.000000e+000
    outer loop
      vertex  1.524000e+002  1.524000e+002  0.000000e+000
      vertex -1.524000e+002 -1.524000e+002  0.000000e+000
      vertex -1.524000e+002  1.524000e+002  0.000000e+000
    endloop
  endfacet
  facet normal  1.000000e+000  0.000000e+000  0.000000e+000
    outer loop
      vertex  1.524000e+002  1.524000e+002  0.000000e+000
      vertex  1.524000e+002  1.524000e+002  1.270000e+001
      vertex  1.524000e+002 -1.524000e+002  0.000000e+000
    endloop
  endfacet
  facet normal  1.000000e+000  0.000000e+000  0.000000e+000
    outer loop
      vertex  1.524000e+002 -1.524000e+002  0.000000e+000
      vertex  1.524000e+002  1.524000e+002  1.270000e+001
      vertex  1.524000e+002 -1.524000e+002  1.270000e+001
    endloop
  endfacet
  facet normal  0.000000e+000 -1.000000e+000  -0.000000e+000
    outer loop
      vertex  1.524000e+002 -1.524000e+002  0.000000e+000
      vertex  1.524000e+002 -1.524000e+002  1.270000e+001
      vertex -1.524000e+002 -1.524000e+002  0.000000e+000
    endloop
  endfacet
  facet normal  0.000000e+000 -1.000000e+000  0.000000e+000
    outer loop
      vertex -1.524000e+002 -1.524000e+002  0.000000e+000
      vertex  1.524000e+002 -1.524000e+002  1.270000e+001
      vertex -1.524000e+002 -1.524000e+002  1.270000e+001
    endloop
  endfacet
  facet normal -1.000000e+000  0.000000e+000  0.000000e+000
    outer loop
      vertex -1.524000e+002 -1.524000e+002  0.000000e+000
      vertex -1.524000e+002 -1.524000e+002  1.270000e+001
      vertex -1.524000e+002  1.524000e+002  0.000000e+000
    endloop
  endfacet
  facet normal -1.000000e+000  0.000000e+000  0.000000e+000
    outer loop
      vertex -1.524000e+002  1.524000e+002  0.000000e+000
      vertex -1.524000e+002 -1.524000e+002  1.270000e+001
      vertex -1.524000e+002  1.524000e+002  1.270000e+001
    endloop
  endfacet
  facet normal  0.000000e+000  1.000000e+000  0.000000e+000
    outer loop
      vertex -1.524000e+002  1.524000e+002  0.000000e+000
      vertex -1.524000e+002  1.524000e+002  1.270000e+001
      vertex  1.524000e+002  1.524000e+002  0.000000e+000
    endloop
  endfacet
  facet normal  0.000000e+000  1.000000e+000  -0.000000e+000
    outer loop
      vertex  1.524000e+002  1.524000e+002  0.000000e+000
      vertex -1.524000e+002  1.524000e+002  1.270000e+001
      vertex  1.524000e+002  1.524000e+002  1.270000e+001
    endloop
  endfacet
endsolid CATIA STL
