solid CATIA STL
  facet normal -1.000000e+000  0.000000e+000  -0.000000e+000
    outer loop
      vertex  1.270000e+002 -7.360000e+001  1.270000e+001
      vertex  1.270000e+002  1.524000e+002  7.770000e+001
      vertex  1.270000e+002  1.524000e+002  1.270000e+001
    endloop
  endfacet
  facet normal -1.000000e+000  0.000000e+000  0.000000e+000
    outer loop
      vertex  1.270000e+002 -1.474000e+002  1.270000e+001
      vertex  1.270000e+002 -1.474000e+002  2.917412e+002
      vertex  1.270000e+002 -1.232000e+002  2.917412e+002
    endloop
  endfacet
  facet normal -1.000000e+000  0.000000e+000  -0.000000e+000
    outer loop
      vertex  1.270000e+002 -1.474000e+002  1.270000e+001
      vertex  1.270000e+002 -1.232000e+002  2.917412e+002
      vertex  1.270000e+002 -1.232000e+002  2.667000e+002
    endloop
  endfacet
  facet normal -1.000000e+000  0.000000e+000  -0.000000e+000
    outer loop
      vertex  1.270000e+002 -1.474000e+002  1.270000e+001
      vertex  1.270000e+002 -1.232000e+002  2.667000e+002
      vertex  1.270000e+002 -1.231201e+002  2.652780e+002
    endloop
  endfacet
  facet normal -1.000000e+000  0.000000e+000  -0.000000e+000
    outer loop
      vertex  1.270000e+002 -1.474000e+002  1.270000e+001
      vertex  1.270000e+002 -1.231201e+002  2.652780e+002
      vertex  1.270000e+002 -1.228816e+002  2.638740e+002
    endloop
  endfacet
  facet normal -1.000000e+000  0.000000e+000  -0.000000e+000
    outer loop
      vertex  1.270000e+002 -1.474000e+002  1.270000e+001
      vertex  1.270000e+002 -1.228816e+002  2.638740e+002
      vertex  1.270000e+002 -1.224873e+002  2.625055e+002
    endloop
  endfacet
  facet normal -1.000000e+000  0.000000e+000  -0.000000e+000
    outer loop
      vertex  1.270000e+002 -1.474000e+002  1.270000e+001
      vertex  1.270000e+002 -1.224873e+002  2.625055e+002
      vertex  1.270000e+002 -1.219423e+002  2.611897e+002
    endloop
  endfacet
  facet normal -1.000000e+000  0.000000e+000  -0.000000e+000
    outer loop
      vertex  1.270000e+002 -1.474000e+002  1.270000e+001
      vertex  1.270000e+002 -1.219423e+002  2.611897e+002
      vertex  1.270000e+002 -1.212534e+002  2.599432e+002
    endloop
  endfacet
  facet normal -1.000000e+000  0.000000e+000  -0.000000e+000
    outer loop
      vertex  1.270000e+002 -1.474000e+002  1.270000e+001
      vertex  1.270000e+002 -1.212534e+002  2.599432e+002
      vertex  1.270000e+002 -1.204293e+002  2.587817e+002
    endloop
  endfacet
  facet normal -1.000000e+000  0.000000e+000  -0.000000e+000
    outer loop
      vertex  1.270000e+002 -1.474000e+002  1.270000e+001
      vertex  1.270000e+002 -1.204293e+002  2.587817e+002
      vertex  1.270000e+002 -1.194803e+002  2.577198e+002
    endloop
  endfacet
  facet normal -1.000000e+000  0.000000e+000  -0.000000e+000
    outer loop
      vertex  1.270000e+002 -1.474000e+002  1.270000e+001
      vertex  1.270000e+002 -1.194803e+002  2.577198e+002
      vertex  1.270000e+002 -1.184183e+002  2.567708e+002
    endloop
  endfacet
  facet normal -1.000000e+000  0.000000e+000  -0.000000e+000
    outer loop
      vertex  1.270000e+002 -1.474000e+002  1.270000e+001
      vertex  1.270000e+002 -1.184183e+002  2.567708e+002
      vertex  1.270000e+002 -1.172568e+002  2.559466e+002
    endloop
  endfacet
  facet normal -1.000000e+000  0.000000e+000  -0.000000e+000
    outer loop
      vertex  1.270000e+002 -1.474000e+002  1.270000e+001
      vertex  1.270000e+002 -1.172568e+002  2.559466e+002
      vertex  1.270000e+002 -1.160103e+002  2.552577e+002
    endloop
  endfacet
  facet normal -1.000000e+000  0.000000e+000  -0.000000e+000
    outer loop
      vertex  1.270000e+002 -1.474000e+002  1.270000e+001
      vertex  1.270000e+002 -1.160103e+002  2.552577e+002
      vertex  1.270000e+002 -1.146945e+002  2.547127e+002
    endloop
  endfacet
  facet normal -1.000000e+000  0.000000e+000  -0.000000e+000
    outer loop
      vertex  1.270000e+002 -1.474000e+002  1.270000e+001
      vertex  1.270000e+002 -1.146945e+002  2.547127e+002
      vertex  1.270000e+002 -1.133260e+002  2.543184e+002
    endloop
  endfacet
  facet normal -1.000000e+000  0.000000e+000  -0.000000e+000
    outer loop
      vertex  1.270000e+002 -1.474000e+002  1.270000e+001
      vertex  1.270000e+002 -1.133260e+002  2.543184e+002
      vertex  1.270000e+002 -1.119220e+002  2.540798e+002
    endloop
  endfacet
  facet normal -1.000000e+000  0.000000e+000  -0.000000e+000
    outer loop
      vertex  1.270000e+002 -1.474000e+002  1.270000e+001
      vertex  1.270000e+002 -1.119220e+002  2.540798e+002
      vertex  1.270000e+002 -1.105000e+002  2.540000e+002
    endloop
  endfacet
  facet normal -9.999999e-001  0.000000e+000  -0.000000e+000
    outer loop
      vertex  1.270000e+002 -1.474000e+002  1.270000e+001
      vertex  1.270000e+002 -1.105000e+002  2.540000e+002
      vertex  1.270000e+002 -7.360000e+001  7.770000e+001
    endloop
  endfacet
  facet normal -1.000000e+000  0.000000e+000  -0.000000e+000
    outer loop
      vertex  1.270000e+002 -1.474000e+002  1.270000e+001
      vertex  1.270000e+002 -7.360000e+001  7.770000e+001
      vertex  1.270000e+002  1.524000e+002  7.770000e+001
    endloop
  endfacet
  facet normal -1.000000e+000  0.000000e+000  0.000000e+000
    outer loop
      vertex  1.270000e+002 -1.474000e+002  1.270000e+001
      vertex  1.270000e+002  1.524000e+002  7.770000e+001
      vertex  1.270000e+002 -7.360000e+001  1.270000e+001
    endloop
  endfacet
  facet normal -1.000000e+000  0.000000e+000  0.000000e+000
    outer loop
      vertex  1.270000e+002 -7.360000e+001  7.770000e+001
      vertex  1.270000e+002 -1.105000e+002  2.540000e+002
      vertex  1.270000e+002 -1.090780e+002  2.540798e+002
    endloop
  endfacet
  facet normal -1.000000e+000  0.000000e+000  0.000000e+000
    outer loop
      vertex  1.270000e+002 -7.360000e+001  7.770000e+001
      vertex  1.270000e+002 -1.090780e+002  2.540798e+002
      vertex  1.270000e+002 -1.076740e+002  2.543184e+002
    endloop
  endfacet
  facet normal -1.000000e+000  0.000000e+000  0.000000e+000
    outer loop
      vertex  1.270000e+002 -7.360000e+001  7.770000e+001
      vertex  1.270000e+002 -1.076740e+002  2.543184e+002
      vertex  1.270000e+002 -1.063055e+002  2.547127e+002
    endloop
  endfacet
  facet normal -1.000000e+000  0.000000e+000  0.000000e+000
    outer loop
      vertex  1.270000e+002 -7.360000e+001  7.770000e+001
      vertex  1.270000e+002 -1.063055e+002  2.547127e+002
      vertex  1.270000e+002 -1.049897e+002  2.552577e+002
    endloop
  endfacet
  facet normal -9.999999e-001  0.000000e+000  0.000000e+000
    outer loop
      vertex  1.270000e+002 -7.360000e+001  7.770000e+001
      vertex  1.270000e+002 -1.049897e+002  2.552577e+002
      vertex  1.270000e+002 -1.037432e+002  2.559466e+002
    endloop
  endfacet
  facet normal -1.000000e+000  0.000000e+000  0.000000e+000
    outer loop
      vertex  1.270000e+002 -7.360000e+001  7.770000e+001
      vertex  1.270000e+002 -1.037432e+002  2.559466e+002
      vertex  1.270000e+002 -1.025817e+002  2.567708e+002
    endloop
  endfacet
  facet normal -1.000000e+000  0.000000e+000  0.000000e+000
    outer loop
      vertex  1.270000e+002 -7.360000e+001  7.770000e+001
      vertex  1.270000e+002 -1.025817e+002  2.567708e+002
      vertex  1.270000e+002 -1.015197e+002  2.577198e+002
    endloop
  endfacet
  facet normal -1.000000e+000  0.000000e+000  0.000000e+000
    outer loop
      vertex  1.270000e+002 -7.360000e+001  7.770000e+001
      vertex  1.270000e+002 -1.015197e+002  2.577198e+002
      vertex  1.270000e+002 -1.005707e+002  2.587817e+002
    endloop
  endfacet
  facet normal -1.000000e+000  0.000000e+000  0.000000e+000
    outer loop
      vertex  1.270000e+002 -7.360000e+001  7.770000e+001
      vertex  1.270000e+002 -1.005707e+002  2.587817e+002
      vertex  1.270000e+002 -9.974660e+001  2.599432e+002
    endloop
  endfacet
  facet normal -1.000000e+000  0.000000e+000  0.000000e+000
    outer loop
      vertex  1.270000e+002 -7.360000e+001  7.770000e+001
      vertex  1.270000e+002 -9.974660e+001  2.599432e+002
      vertex  1.270000e+002 -9.905769e+001  2.611897e+002
    endloop
  endfacet
  facet normal -1.000000e+000  0.000000e+000  0.000000e+000
    outer loop
      vertex  1.270000e+002 -7.360000e+001  7.770000e+001
      vertex  1.270000e+002 -9.905769e+001  2.611897e+002
      vertex  1.270000e+002 -9.851268e+001  2.625055e+002
    endloop
  endfacet
  facet normal -1.000000e+000  0.000000e+000  0.000000e+000
    outer loop
      vertex  1.270000e+002 -7.360000e+001  7.770000e+001
      vertex  1.270000e+002 -9.851268e+001  2.625055e+002
      vertex  1.270000e+002 -9.811842e+001  2.638740e+002
    endloop
  endfacet
  facet normal -1.000000e+000  0.000000e+000  0.000000e+000
    outer loop
      vertex  1.270000e+002 -7.360000e+001  7.770000e+001
      vertex  1.270000e+002 -9.811842e+001  2.638740e+002
      vertex  1.270000e+002 -9.787985e+001  2.652780e+002
    endloop
  endfacet
  facet normal -1.000000e+000  0.000000e+000  0.000000e+000
    outer loop
      vertex  1.270000e+002 -7.360000e+001  7.770000e+001
      vertex  1.270000e+002 -9.787985e+001  2.652780e+002
      vertex  1.270000e+002 -9.780000e+001  2.667000e+002
    endloop
  endfacet
  facet normal -1.000000e+000  0.000000e+000  0.000000e+000
    outer loop
      vertex  1.270000e+002 -7.360000e+001  7.770000e+001
      vertex  1.270000e+002 -9.780000e+001  2.667000e+002
      vertex  1.270000e+002 -9.780000e+001  2.917412e+002
    endloop
  endfacet
  facet normal -1.000000e+000  0.000000e+000  0.000000e+000
    outer loop
      vertex  1.270000e+002 -7.360000e+001  7.770000e+001
      vertex  1.270000e+002 -9.780000e+001  2.917412e+002
      vertex  1.270000e+002 -7.360000e+001  2.917412e+002
    endloop
  endfacet
  facet normal  1.000000e+000  0.000000e+000  0.000000e+000
    outer loop
      vertex  1.397000e+002  1.524000e+002  1.270000e+001
      vertex  1.397000e+002  1.524000e+002  7.770000e+001
      vertex  1.397000e+002 -7.360000e+001  1.270000e+001
    endloop
  endfacet
  facet normal  1.000000e+000  0.000000e+000  -0.000000e+000
    outer loop
      vertex  1.397000e+002 -1.474000e+002  1.270000e+001
      vertex  1.397000e+002 -7.360000e+001  1.270000e+001
      vertex  1.397000e+002  1.524000e+002  7.770000e+001
    endloop
  endfacet
  facet normal  1.000000e+000  0.000000e+000  0.000000e+000
    outer loop
      vertex  1.397000e+002 -1.474000e+002  1.270000e+001
      vertex  1.397000e+002  1.524000e+002  7.770000e+001
      vertex  1.397000e+002 -7.360000e+001  7.770000e+001
    endloop
  endfacet
  facet normal  9.999999e-001  0.000000e+000  0.000000e+000
    outer loop
      vertex  1.397000e+002 -1.474000e+002  1.270000e+001
      vertex  1.397000e+002 -7.360000e+001  7.770000e+001
      vertex  1.397000e+002 -1.105000e+002  2.540000e+002
    endloop
  endfacet
  facet normal  1.000000e+000  0.000000e+000  0.000000e+000
    outer loop
      vertex  1.397000e+002 -1.474000e+002  1.270000e+001
      vertex  1.397000e+002 -1.105000e+002  2.540000e+002
      vertex  1.397000e+002 -1.119220e+002  2.540798e+002
    endloop
  endfacet
  facet normal  1.000000e+000  0.000000e+000  0.000000e+000
    outer loop
      vertex  1.397000e+002 -1.474000e+002  1.270000e+001
      vertex  1.397000e+002 -1.119220e+002  2.540798e+002
      vertex  1.397000e+002 -1.133260e+002  2.543184e+002
    endloop
  endfacet
  facet normal  1.000000e+000  0.000000e+000  0.000000e+000
    outer loop
      vertex  1.397000e+002 -1.474000e+002  1.270000e+001
      vertex  1.397000e+002 -1.133260e+002  2.543184e+002
      vertex  1.397000e+002 -1.146945e+002  2.547127e+002
    endloop
  endfacet
  facet normal  1.000000e+000  0.000000e+000  0.000000e+000
    outer loop
      vertex  1.397000e+002 -1.474000e+002  1.270000e+001
      vertex  1.397000e+002 -1.146945e+002  2.547127e+002
      vertex  1.397000e+002 -1.160103e+002  2.552577e+002
    endloop
  endfacet
  facet normal  1.000000e+000  0.000000e+000  0.000000e+000
    outer loop
      vertex  1.397000e+002 -1.474000e+002  1.270000e+001
      vertex  1.397000e+002 -1.160103e+002  2.552577e+002
      vertex  1.397000e+002 -1.172568e+002  2.559466e+002
    endloop
  endfacet
  facet normal  1.000000e+000  0.000000e+000  0.000000e+000
    outer loop
      vertex  1.397000e+002 -1.474000e+002  1.270000e+001
      vertex  1.397000e+002 -1.172568e+002  2.559466e+002
      vertex  1.397000e+002 -1.184183e+002  2.567708e+002
    endloop
  endfacet
  facet normal  1.000000e+000  0.000000e+000  0.000000e+000
    outer loop
      vertex  1.397000e+002 -1.474000e+002  1.270000e+001
      vertex  1.397000e+002 -1.184183e+002  2.567708e+002
      vertex  1.397000e+002 -1.194803e+002  2.577198e+002
    endloop
  endfacet
  facet normal  1.000000e+000  0.000000e+000  0.000000e+000
    outer loop
      vertex  1.397000e+002 -1.474000e+002  1.270000e+001
      vertex  1.397000e+002 -1.194803e+002  2.577198e+002
      vertex  1.397000e+002 -1.204293e+002  2.587817e+002
    endloop
  endfacet
  facet normal  1.000000e+000  0.000000e+000  0.000000e+000
    outer loop
      vertex  1.397000e+002 -1.474000e+002  1.270000e+001
      vertex  1.397000e+002 -1.204293e+002  2.587817e+002
      vertex  1.397000e+002 -1.212534e+002  2.599432e+002
    endloop
  endfacet
  facet normal  1.000000e+000  0.000000e+000  0.000000e+000
    outer loop
      vertex  1.397000e+002 -1.474000e+002  1.270000e+001
      vertex  1.397000e+002 -1.212534e+002  2.599432e+002
      vertex  1.397000e+002 -1.219423e+002  2.611897e+002
    endloop
  endfacet
  facet normal  1.000000e+000  0.000000e+000  0.000000e+000
    outer loop
      vertex  1.397000e+002 -1.474000e+002  1.270000e+001
      vertex  1.397000e+002 -1.219423e+002  2.611897e+002
      vertex  1.397000e+002 -1.224873e+002  2.625055e+002
    endloop
  endfacet
  facet normal  1.000000e+000  0.000000e+000  0.000000e+000
    outer loop
      vertex  1.397000e+002 -1.474000e+002  1.270000e+001
      vertex  1.397000e+002 -1.224873e+002  2.625055e+002
      vertex  1.397000e+002 -1.228816e+002  2.638740e+002
    endloop
  endfacet
  facet normal  1.000000e+000  0.000000e+000  0.000000e+000
    outer loop
      vertex  1.397000e+002 -1.474000e+002  1.270000e+001
      vertex  1.397000e+002 -1.228816e+002  2.638740e+002
      vertex  1.397000e+002 -1.231201e+002  2.652780e+002
    endloop
  endfacet
  facet normal  1.000000e+000  0.000000e+000  0.000000e+000
    outer loop
      vertex  1.397000e+002 -1.474000e+002  1.270000e+001
      vertex  1.397000e+002 -1.231201e+002  2.652780e+002
      vertex  1.397000e+002 -1.232000e+002  2.667000e+002
    endloop
  endfacet
  facet normal  1.000000e+000  0.000000e+000  -0.000000e+000
    outer loop
      vertex  1.397000e+002 -1.474000e+002  1.270000e+001
      vertex  1.397000e+002 -1.232000e+002  2.667000e+002
      vertex  1.397000e+002 -1.232000e+002  2.917412e+002
    endloop
  endfacet
  facet normal  1.000000e+000  0.000000e+000  0.000000e+000
    outer loop
      vertex  1.397000e+002 -1.474000e+002  1.270000e+001
      vertex  1.397000e+002 -1.232000e+002  2.917412e+002
      vertex  1.397000e+002 -1.474000e+002  2.917412e+002
    endloop
  endfacet
  facet normal  1.000000e+000  0.000000e+000  0.000000e+000
    outer loop
      vertex  1.397000e+002 -7.360000e+001  7.770000e+001
      vertex  1.397000e+002 -7.360000e+001  2.917412e+002
      vertex  1.397000e+002 -9.780000e+001  2.917412e+002
    endloop
  endfacet
  facet normal  1.000000e+000  0.000000e+000  0.000000e+000
    outer loop
      vertex  1.397000e+002 -7.360000e+001  7.770000e+001
      vertex  1.397000e+002 -9.780000e+001  2.917412e+002
      vertex  1.397000e+002 -9.780000e+001  2.667000e+002
    endloop
  endfacet
  facet normal  1.000000e+000  0.000000e+000  0.000000e+000
    outer loop
      vertex  1.397000e+002 -7.360000e+001  7.770000e+001
      vertex  1.397000e+002 -9.780000e+001  2.667000e+002
      vertex  1.397000e+002 -9.787985e+001  2.652780e+002
    endloop
  endfacet
  facet normal  1.000000e+000  0.000000e+000  0.000000e+000
    outer loop
      vertex  1.397000e+002 -7.360000e+001  7.770000e+001
      vertex  1.397000e+002 -9.787985e+001  2.652780e+002
      vertex  1.397000e+002 -9.811842e+001  2.638740e+002
    endloop
  endfacet
  facet normal  1.000000e+000  0.000000e+000  0.000000e+000
    outer loop
      vertex  1.397000e+002 -7.360000e+001  7.770000e+001
      vertex  1.397000e+002 -9.811842e+001  2.638740e+002
      vertex  1.397000e+002 -9.851268e+001  2.625055e+002
    endloop
  endfacet
  facet normal  1.000000e+000  0.000000e+000  0.000000e+000
    outer loop
      vertex  1.397000e+002 -7.360000e+001  7.770000e+001
      vertex  1.397000e+002 -9.851268e+001  2.625055e+002
      vertex  1.397000e+002 -9.905769e+001  2.611897e+002
    endloop
  endfacet
  facet normal  1.000000e+000  0.000000e+000  0.000000e+000
    outer loop
      vertex  1.397000e+002 -7.360000e+001  7.770000e+001
      vertex  1.397000e+002 -9.905769e+001  2.611897e+002
      vertex  1.397000e+002 -9.974660e+001  2.599432e+002
    endloop
  endfacet
  facet normal  1.000000e+000  0.000000e+000  0.000000e+000
    outer loop
      vertex  1.397000e+002 -7.360000e+001  7.770000e+001
      vertex  1.397000e+002 -9.974660e+001  2.599432e+002
      vertex  1.397000e+002 -1.005707e+002  2.587817e+002
    endloop
  endfacet
  facet normal  1.000000e+000  0.000000e+000  0.000000e+000
    outer loop
      vertex  1.397000e+002 -7.360000e+001  7.770000e+001
      vertex  1.397000e+002 -1.005707e+002  2.587817e+002
      vertex  1.397000e+002 -1.015197e+002  2.577198e+002
    endloop
  endfacet
  facet normal  1.000000e+000  0.000000e+000  0.000000e+000
    outer loop
      vertex  1.397000e+002 -7.360000e+001  7.770000e+001
      vertex  1.397000e+002 -1.015197e+002  2.577198e+002
      vertex  1.397000e+002 -1.025817e+002  2.567708e+002
    endloop
  endfacet
  facet normal  1.000000e+000  0.000000e+000  0.000000e+000
    outer loop
      vertex  1.397000e+002 -7.360000e+001  7.770000e+001
      vertex  1.397000e+002 -1.025817e+002  2.567708e+002
      vertex  1.397000e+002 -1.037432e+002  2.559466e+002
    endloop
  endfacet
  facet normal  9.999999e-001  0.000000e+000  0.000000e+000
    outer loop
      vertex  1.397000e+002 -7.360000e+001  7.770000e+001
      vertex  1.397000e+002 -1.037432e+002  2.559466e+002
      vertex  1.397000e+002 -1.049897e+002  2.552577e+002
    endloop
  endfacet
  facet normal  1.000000e+000  0.000000e+000  0.000000e+000
    outer loop
      vertex  1.397000e+002 -7.360000e+001  7.770000e+001
      vertex  1.397000e+002 -1.049897e+002  2.552577e+002
      vertex  1.397000e+002 -1.063055e+002  2.547127e+002
    endloop
  endfacet
  facet normal  1.000000e+000  0.000000e+000  0.000000e+000
    outer loop
      vertex  1.397000e+002 -7.360000e+001  7.770000e+001
      vertex  1.397000e+002 -1.063055e+002  2.547127e+002
      vertex  1.397000e+002 -1.076740e+002  2.543184e+002
    endloop
  endfacet
  facet normal  1.000000e+000  0.000000e+000  0.000000e+000
    outer loop
      vertex  1.397000e+002 -7.360000e+001  7.770000e+001
      vertex  1.397000e+002 -1.076740e+002  2.543184e+002
      vertex  1.397000e+002 -1.090780e+002  2.540798e+002
    endloop
  endfacet
  facet normal  1.000000e+000  0.000000e+000  0.000000e+000
    outer loop
      vertex  1.397000e+002 -7.360000e+001  7.770000e+001
      vertex  1.397000e+002 -1.090780e+002  2.540798e+002
      vertex  1.397000e+002 -1.105000e+002  2.540000e+002
    endloop
  endfacet
  facet normal  -0.000000e+000  0.000000e+000  1.000000e+000
    outer loop
      vertex  1.397000e+002 -1.232000e+002  2.917412e+002
      vertex  1.270000e+002 -1.232000e+002  2.917412e+002
      vertex  1.397000e+002 -1.474000e+002  2.917412e+002
    endloop
  endfacet
  facet normal  0.000000e+000  0.000000e+000  1.000000e+000
    outer loop
      vertex  1.397000e+002 -1.474000e+002  2.917412e+002
      vertex  1.270000e+002 -1.232000e+002  2.917412e+002
      vertex  1.270000e+002 -1.474000e+002  2.917412e+002
    endloop
  endfacet
  facet normal  0.000000e+000 -1.000000e+000  0.000000e+000
    outer loop
      vertex  1.397000e+002 -1.474000e+002  2.917412e+002
      vertex  1.270000e+002 -1.474000e+002  2.917412e+002
      vertex  1.397000e+002 -1.474000e+002  1.270000e+001
    endloop
  endfacet
  facet normal  0.000000e+000 -1.000000e+000  0.000000e+000
    outer loop
      vertex  1.397000e+002 -1.474000e+002  1.270000e+001
      vertex  1.270000e+002 -1.474000e+002  2.917412e+002
      vertex  1.270000e+002 -1.474000e+002  1.270000e+001
    endloop
  endfacet
  facet normal  0.000000e+000  0.000000e+000 -1.000000e+000
    outer loop
      vertex  1.397000e+002 -1.474000e+002  1.270000e+001
      vertex  1.270000e+002 -1.474000e+002  1.270000e+001
      vertex  1.397000e+002 -7.360000e+001  1.270000e+001
    endloop
  endfacet
  facet normal  -0.000000e+000  0.000000e+000 -1.000000e+000
    outer loop
      vertex  1.397000e+002 -7.360000e+001  1.270000e+001
      vertex  1.270000e+002 -1.474000e+002  1.270000e+001
      vertex  1.270000e+002 -7.360000e+001  1.270000e+001
    endloop
  endfacet
  facet normal  0.000000e+000  0.000000e+000 -1.000000e+000
    outer loop
      vertex  1.397000e+002 -7.360000e+001  1.270000e+001
      vertex  1.270000e+002 -7.360000e+001  1.270000e+001
      vertex  1.397000e+002  1.524000e+002  1.270000e+001
    endloop
  endfacet
  facet normal  -0.000000e+000  0.000000e+000 -1.000000e+000
    outer loop
      vertex  1.397000e+002  1.524000e+002  1.270000e+001
      vertex  1.270000e+002 -7.360000e+001  1.270000e+001
      vertex  1.270000e+002  1.524000e+002  1.270000e+001
    endloop
  endfacet
  facet normal  0.000000e+000  1.000000e+000  0.000000e+000
    outer loop
      vertex  1.270000e+002  1.524000e+002  7.770000e+001
      vertex  1.397000e+002  1.524000e+002  7.770000e+001
      vertex  1.270000e+002  1.524000e+002  1.270000e+001
    endloop
  endfacet
  facet normal  0.000000e+000  1.000000e+000  0.000000e+000
    outer loop
      vertex  1.270000e+002  1.524000e+002  1.270000e+001
      vertex  1.397000e+002  1.524000e+002  7.770000e+001
      vertex  1.397000e+002  1.524000e+002  1.270000e+001
    endloop
  endfacet
  facet normal  -0.000000e+000  0.000000e+000  1.000000e+000
    outer loop
      vertex  1.397000e+002  1.524000e+002  7.770000e+001
      vertex  1.270000e+002  1.524000e+002  7.770000e+001
      vertex  1.397000e+002 -7.360000e+001  7.770000e+001
    endloop
  endfacet
  facet normal  0.000000e+000  0.000000e+000  1.000000e+000
    outer loop
      vertex  1.397000e+002 -7.360000e+001  7.770000e+001
      vertex  1.270000e+002  1.524000e+002  7.770000e+001
      vertex  1.270000e+002 -7.360000e+001  7.770000e+001
    endloop
  endfacet
  facet normal  0.000000e+000  1.000000e+000  0.000000e+000
    outer loop
      vertex  1.397000e+002 -7.360000e+001  7.770000e+001
      vertex  1.270000e+002 -7.360000e+001  7.770000e+001
      vertex  1.397000e+002 -7.360000e+001  2.917412e+002
    endloop
  endfacet
  facet normal  0.000000e+000  1.000000e+000  0.000000e+000
    outer loop
      vertex  1.397000e+002 -7.360000e+001  2.917412e+002
      vertex  1.270000e+002 -7.360000e+001  7.770000e+001
      vertex  1.270000e+002 -7.360000e+001  2.917412e+002
    endloop
  endfacet
  facet normal  -0.000000e+000  0.000000e+000  1.000000e+000
    outer loop
      vertex  1.397000e+002 -7.360000e+001  2.917412e+002
      vertex  1.270000e+002 -7.360000e+001  2.917412e+002
      vertex  1.397000e+002 -9.780000e+001  2.917412e+002
    endloop
  endfacet
  facet normal  0.000000e+000  0.000000e+000  1.000000e+000
    outer loop
      vertex  1.397000e+002 -9.780000e+001  2.917412e+002
      vertex  1.270000e+002 -7.360000e+001  2.917412e+002
      vertex  1.270000e+002 -9.780000e+001  2.917412e+002
    endloop
  endfacet
  facet normal  0.000000e+000 -1.000000e+000  0.000000e+000
    outer loop
      vertex  1.270000e+002 -9.780000e+001  2.667000e+002
      vertex  1.397000e+002 -9.780000e+001  2.667000e+002
      vertex  1.270000e+002 -9.780000e+001  2.917412e+002
    endloop
  endfacet
  facet normal  0.000000e+000 -1.000000e+000  0.000000e+000
    outer loop
      vertex  1.270000e+002 -9.780000e+001  2.917412e+002
      vertex  1.397000e+002 -9.780000e+001  2.667000e+002
      vertex  1.397000e+002 -9.780000e+001  2.917412e+002
    endloop
  endfacet
  facet normal  0.000000e+000  9.984271e-001  5.606577e-002
    outer loop
      vertex  1.270000e+002 -1.232000e+002  2.667000e+002
      vertex  1.397000e+002 -1.232000e+002  2.667000e+002
      vertex  1.270000e+002 -1.231201e+002  2.652780e+002
    endloop
  endfacet
  facet normal  -0.000000e+000  9.984271e-001  5.606577e-002
    outer loop
      vertex  1.270000e+002 -1.231201e+002  2.652780e+002
      vertex  1.397000e+002 -1.232000e+002  2.667000e+002
      vertex  1.397000e+002 -1.231201e+002  2.652780e+002
    endloop
  endfacet
  facet normal  0.000000e+000  9.858704e-001  1.675099e-001
    outer loop
      vertex  1.270000e+002 -1.231201e+002  2.652780e+002
      vertex  1.397000e+002 -1.231201e+002  2.652780e+002
      vertex  1.270000e+002 -1.228816e+002  2.638740e+002
    endloop
  endfacet
  facet normal  -0.000000e+000  9.858704e-001  1.675099e-001
    outer loop
      vertex  1.270000e+002 -1.228816e+002  2.638740e+002
      vertex  1.397000e+002 -1.231201e+002  2.652780e+002
      vertex  1.397000e+002 -1.228816e+002  2.638740e+002
    endloop
  endfacet
  facet normal  0.000000e+000  9.609178e-001  2.768339e-001
    outer loop
      vertex  1.270000e+002 -1.228816e+002  2.638740e+002
      vertex  1.397000e+002 -1.228816e+002  2.638740e+002
      vertex  1.270000e+002 -1.224873e+002  2.625055e+002
    endloop
  endfacet
  facet normal  -0.000000e+000  9.609178e-001  2.768339e-001
    outer loop
      vertex  1.270000e+002 -1.224873e+002  2.625055e+002
      vertex  1.397000e+002 -1.228816e+002  2.638740e+002
      vertex  1.397000e+002 -1.224873e+002  2.625055e+002
    endloop
  endfacet
  facet normal  0.000000e+000  9.238812e-001  3.826792e-001
    outer loop
      vertex  1.270000e+002 -1.224873e+002  2.625055e+002
      vertex  1.397000e+002 -1.224873e+002  2.625055e+002
      vertex  1.270000e+002 -1.219423e+002  2.611897e+002
    endloop
  endfacet
  facet normal  -0.000000e+000  9.238812e-001  3.826792e-001
    outer loop
      vertex  1.270000e+002 -1.219423e+002  2.611897e+002
      vertex  1.397000e+002 -1.224873e+002  2.625055e+002
      vertex  1.397000e+002 -1.219423e+002  2.611897e+002
    endloop
  endfacet
  facet normal  0.000000e+000  8.752183e-001  4.837283e-001
    outer loop
      vertex  1.270000e+002 -1.219423e+002  2.611897e+002
      vertex  1.397000e+002 -1.219423e+002  2.611897e+002
      vertex  1.270000e+002 -1.212534e+002  2.599432e+002
    endloop
  endfacet
  facet normal  -0.000000e+000  8.752183e-001  4.837283e-001
    outer loop
      vertex  1.270000e+002 -1.212534e+002  2.599432e+002
      vertex  1.397000e+002 -1.219423e+002  2.611897e+002
      vertex  1.397000e+002 -1.212534e+002  2.599432e+002
    endloop
  endfacet
  facet normal  0.000000e+000  8.155656e-001  5.786646e-001
    outer loop
      vertex  1.270000e+002 -1.212534e+002  2.599432e+002
      vertex  1.397000e+002 -1.212534e+002  2.599432e+002
      vertex  1.270000e+002 -1.204293e+002  2.587817e+002
    endloop
  endfacet
  facet normal  -0.000000e+000  8.155656e-001  5.786646e-001
    outer loop
      vertex  1.270000e+002 -1.204293e+002  2.587817e+002
      vertex  1.397000e+002 -1.212534e+002  2.599432e+002
      vertex  1.397000e+002 -1.204293e+002  2.587817e+002
    endloop
  endfacet
  facet normal  0.000000e+000  7.456368e-001  6.663525e-001
    outer loop
      vertex  1.270000e+002 -1.204293e+002  2.587817e+002
      vertex  1.397000e+002 -1.204293e+002  2.587817e+002
      vertex  1.270000e+002 -1.194803e+002  2.577198e+002
    endloop
  endfacet
  facet normal  -0.000000e+000  7.456368e-001  6.663525e-001
    outer loop
      vertex  1.270000e+002 -1.194803e+002  2.577198e+002
      vertex  1.397000e+002 -1.204293e+002  2.587817e+002
      vertex  1.397000e+002 -1.194803e+002  2.577198e+002
    endloop
  endfacet
  facet normal  0.000000e+000  6.663473e-001  7.456416e-001
    outer loop
      vertex  1.270000e+002 -1.194803e+002  2.577198e+002
      vertex  1.397000e+002 -1.194803e+002  2.577198e+002
      vertex  1.270000e+002 -1.184183e+002  2.567708e+002
    endloop
  endfacet
  facet normal  -0.000000e+000  6.663473e-001  7.456416e-001
    outer loop
      vertex  1.270000e+002 -1.184183e+002  2.567708e+002
      vertex  1.397000e+002 -1.194803e+002  2.577198e+002
      vertex  1.397000e+002 -1.184183e+002  2.567708e+002
    endloop
  endfacet
  facet normal  0.000000e+000  5.786732e-001  8.155595e-001
    outer loop
      vertex  1.270000e+002 -1.184183e+002  2.567708e+002
      vertex  1.397000e+002 -1.184183e+002  2.567708e+002
      vertex  1.270000e+002 -1.172568e+002  2.559466e+002
    endloop
  endfacet
  facet normal  -0.000000e+000  5.786732e-001  8.155595e-001
    outer loop
      vertex  1.270000e+002 -1.172568e+002  2.559466e+002
      vertex  1.397000e+002 -1.184183e+002  2.567708e+002
      vertex  1.397000e+002 -1.172568e+002  2.559466e+002
    endloop
  endfacet
  facet normal  0.000000e+000  4.837255e-001  8.752197e-001
    outer loop
      vertex  1.270000e+002 -1.172568e+002  2.559466e+002
      vertex  1.397000e+002 -1.172568e+002  2.559466e+002
      vertex  1.270000e+002 -1.160103e+002  2.552577e+002
    endloop
  endfacet
  facet normal  -0.000000e+000  4.837255e-001  8.752197e-001
    outer loop
      vertex  1.270000e+002 -1.160103e+002  2.552577e+002
      vertex  1.397000e+002 -1.172568e+002  2.559466e+002
      vertex  1.397000e+002 -1.160103e+002  2.552577e+002
    endloop
  endfacet
  facet normal  0.000000e+000  3.826830e-001  9.238797e-001
    outer loop
      vertex  1.270000e+002 -1.160103e+002  2.552577e+002
      vertex  1.397000e+002 -1.160103e+002  2.552577e+002
      vertex  1.270000e+002 -1.146945e+002  2.547127e+002
    endloop
  endfacet
  facet normal  -0.000000e+000  3.826830e-001  9.238797e-001
    outer loop
      vertex  1.270000e+002 -1.146945e+002  2.547127e+002
      vertex  1.397000e+002 -1.160103e+002  2.552577e+002
      vertex  1.397000e+002 -1.146945e+002  2.547127e+002
    endloop
  endfacet
  facet normal  0.000000e+000  2.768303e-001  9.609188e-001
    outer loop
      vertex  1.270000e+002 -1.146945e+002  2.547127e+002
      vertex  1.397000e+002 -1.146945e+002  2.547127e+002
      vertex  1.270000e+002 -1.133260e+002  2.543184e+002
    endloop
  endfacet
  facet normal  -0.000000e+000  2.768303e-001  9.609188e-001
    outer loop
      vertex  1.270000e+002 -1.133260e+002  2.543184e+002
      vertex  1.397000e+002 -1.146945e+002  2.547127e+002
      vertex  1.397000e+002 -1.133260e+002  2.543184e+002
    endloop
  endfacet
  facet normal  0.000000e+000  1.675133e-001  9.858698e-001
    outer loop
      vertex  1.270000e+002 -1.133260e+002  2.543184e+002
      vertex  1.397000e+002 -1.133260e+002  2.543184e+002
      vertex  1.270000e+002 -1.119220e+002  2.540798e+002
    endloop
  endfacet
  facet normal  -0.000000e+000  1.675133e-001  9.858698e-001
    outer loop
      vertex  1.270000e+002 -1.119220e+002  2.540798e+002
      vertex  1.397000e+002 -1.133260e+002  2.543184e+002
      vertex  1.397000e+002 -1.119220e+002  2.540798e+002
    endloop
  endfacet
  facet normal  0.000000e+000  5.606637e-002  9.984271e-001
    outer loop
      vertex  1.270000e+002 -1.119220e+002  2.540798e+002
      vertex  1.397000e+002 -1.119220e+002  2.540798e+002
      vertex  1.270000e+002 -1.105000e+002  2.540000e+002
    endloop
  endfacet
  facet normal  -0.000000e+000  5.606637e-002  9.984271e-001
    outer loop
      vertex  1.270000e+002 -1.105000e+002  2.540000e+002
      vertex  1.397000e+002 -1.119220e+002  2.540798e+002
      vertex  1.397000e+002 -1.105000e+002  2.540000e+002
    endloop
  endfacet
  facet normal  0.000000e+000 -5.606637e-002  9.984271e-001
    outer loop
      vertex  1.270000e+002 -1.105000e+002  2.540000e+002
      vertex  1.397000e+002 -1.105000e+002  2.540000e+002
      vertex  1.270000e+002 -1.090780e+002  2.540798e+002
    endloop
  endfacet
  facet normal  0.000000e+000 -5.606637e-002  9.984271e-001
    outer loop
      vertex  1.270000e+002 -1.090780e+002  2.540798e+002
      vertex  1.397000e+002 -1.105000e+002  2.540000e+002
      vertex  1.397000e+002 -1.090780e+002  2.540798e+002
    endloop
  endfacet
  facet normal  0.000000e+000 -1.675133e-001  9.858698e-001
    outer loop
      vertex  1.270000e+002 -1.090780e+002  2.540798e+002
      vertex  1.397000e+002 -1.090780e+002  2.540798e+002
      vertex  1.270000e+002 -1.076740e+002  2.543184e+002
    endloop
  endfacet
  facet normal  0.000000e+000 -1.675133e-001  9.858698e-001
    outer loop
      vertex  1.270000e+002 -1.076740e+002  2.543184e+002
      vertex  1.397000e+002 -1.090780e+002  2.540798e+002
      vertex  1.397000e+002 -1.076740e+002  2.543184e+002
    endloop
  endfacet
  facet normal  0.000000e+000 -2.768303e-001  9.609188e-001
    outer loop
      vertex  1.270000e+002 -1.076740e+002  2.543184e+002
      vertex  1.397000e+002 -1.076740e+002  2.543184e+002
      vertex  1.270000e+002 -1.063055e+002  2.547127e+002
    endloop
  endfacet
  facet normal  0.000000e+000 -2.768303e-001  9.609188e-001
    outer loop
      vertex  1.270000e+002 -1.063055e+002  2.547127e+002
      vertex  1.397000e+002 -1.076740e+002  2.543184e+002
      vertex  1.397000e+002 -1.063055e+002  2.547127e+002
    endloop
  endfacet
  facet normal  0.000000e+000 -3.826830e-001  9.238797e-001
    outer loop
      vertex  1.270000e+002 -1.063055e+002  2.547127e+002
      vertex  1.397000e+002 -1.063055e+002  2.547127e+002
      vertex  1.270000e+002 -1.049897e+002  2.552577e+002
    endloop
  endfacet
  facet normal  0.000000e+000 -3.826830e-001  9.238797e-001
    outer loop
      vertex  1.270000e+002 -1.049897e+002  2.552577e+002
      vertex  1.397000e+002 -1.063055e+002  2.547127e+002
      vertex  1.397000e+002 -1.049897e+002  2.552577e+002
    endloop
  endfacet
  facet normal  0.000000e+000 -4.837255e-001  8.752197e-001
    outer loop
      vertex  1.270000e+002 -1.049897e+002  2.552577e+002
      vertex  1.397000e+002 -1.049897e+002  2.552577e+002
      vertex  1.270000e+002 -1.037432e+002  2.559466e+002
    endloop
  endfacet
  facet normal  0.000000e+000 -4.837255e-001  8.752197e-001
    outer loop
      vertex  1.270000e+002 -1.037432e+002  2.559466e+002
      vertex  1.397000e+002 -1.049897e+002  2.552577e+002
      vertex  1.397000e+002 -1.037432e+002  2.559466e+002
    endloop
  endfacet
  facet normal  0.000000e+000 -5.786732e-001  8.155595e-001
    outer loop
      vertex  1.270000e+002 -1.037432e+002  2.559466e+002
      vertex  1.397000e+002 -1.037432e+002  2.559466e+002
      vertex  1.270000e+002 -1.025817e+002  2.567708e+002
    endloop
  endfacet
  facet normal  0.000000e+000 -5.786732e-001  8.155595e-001
    outer loop
      vertex  1.270000e+002 -1.025817e+002  2.567708e+002
      vertex  1.397000e+002 -1.037432e+002  2.559466e+002
      vertex  1.397000e+002 -1.025817e+002  2.567708e+002
    endloop
  endfacet
  facet normal  0.000000e+000 -6.663473e-001  7.456416e-001
    outer loop
      vertex  1.270000e+002 -1.025817e+002  2.567708e+002
      vertex  1.397000e+002 -1.025817e+002  2.567708e+002
      vertex  1.270000e+002 -1.015197e+002  2.577198e+002
    endloop
  endfacet
  facet normal  0.000000e+000 -6.663473e-001  7.456416e-001
    outer loop
      vertex  1.270000e+002 -1.015197e+002  2.577198e+002
      vertex  1.397000e+002 -1.025817e+002  2.567708e+002
      vertex  1.397000e+002 -1.015197e+002  2.577198e+002
    endloop
  endfacet
  facet normal  0.000000e+000 -7.456368e-001  6.663525e-001
    outer loop
      vertex  1.270000e+002 -1.015197e+002  2.577198e+002
      vertex  1.397000e+002 -1.015197e+002  2.577198e+002
      vertex  1.270000e+002 -1.005707e+002  2.587817e+002
    endloop
  endfacet
  facet normal  0.000000e+000 -7.456368e-001  6.663525e-001
    outer loop
      vertex  1.270000e+002 -1.005707e+002  2.587817e+002
      vertex  1.397000e+002 -1.015197e+002  2.577198e+002
      vertex  1.397000e+002 -1.005707e+002  2.587817e+002
    endloop
  endfacet
  facet normal  0.000000e+000 -8.155656e-001  5.786646e-001
    outer loop
      vertex  1.270000e+002 -1.005707e+002  2.587817e+002
      vertex  1.397000e+002 -1.005707e+002  2.587817e+002
      vertex  1.270000e+002 -9.974660e+001  2.599432e+002
    endloop
  endfacet
  facet normal  0.000000e+000 -8.155656e-001  5.786646e-001
    outer loop
      vertex  1.270000e+002 -9.974660e+001  2.599432e+002
      vertex  1.397000e+002 -1.005707e+002  2.587817e+002
      vertex  1.397000e+002 -9.974660e+001  2.599432e+002
    endloop
  endfacet
  facet normal  0.000000e+000 -8.752183e-001  4.837283e-001
    outer loop
      vertex  1.270000e+002 -9.974660e+001  2.599432e+002
      vertex  1.397000e+002 -9.974660e+001  2.599432e+002
      vertex  1.270000e+002 -9.905769e+001  2.611897e+002
    endloop
  endfacet
  facet normal  0.000000e+000 -8.752183e-001  4.837283e-001
    outer loop
      vertex  1.270000e+002 -9.905769e+001  2.611897e+002
      vertex  1.397000e+002 -9.974660e+001  2.599432e+002
      vertex  1.397000e+002 -9.905769e+001  2.611897e+002
    endloop
  endfacet
  facet normal  0.000000e+000 -9.238812e-001  3.826792e-001
    outer loop
      vertex  1.270000e+002 -9.905769e+001  2.611897e+002
      vertex  1.397000e+002 -9.905769e+001  2.611897e+002
      vertex  1.270000e+002 -9.851268e+001  2.625055e+002
    endloop
  endfacet
  facet normal  0.000000e+000 -9.238812e-001  3.826792e-001
    outer loop
      vertex  1.270000e+002 -9.851268e+001  2.625055e+002
      vertex  1.397000e+002 -9.905769e+001  2.611897e+002
      vertex  1.397000e+002 -9.851268e+001  2.625055e+002
    endloop
  endfacet
  facet normal  0.000000e+000 -9.609178e-001  2.768339e-001
    outer loop
      vertex  1.270000e+002 -9.851268e+001  2.625055e+002
      vertex  1.397000e+002 -9.851268e+001  2.625055e+002
      vertex  1.270000e+002 -9.811842e+001  2.638740e+002
    endloop
  endfacet
  facet normal  0.000000e+000 -9.609178e-001  2.768339e-001
    outer loop
      vertex  1.270000e+002 -9.811842e+001  2.638740e+002
      vertex  1.397000e+002 -9.851268e+001  2.625055e+002
      vertex  1.397000e+002 -9.811842e+001  2.638740e+002
    endloop
  endfacet
  facet normal  0.000000e+000 -9.858704e-001  1.675099e-001
    outer loop
      vertex  1.270000e+002 -9.811842e+001  2.638740e+002
      vertex  1.397000e+002 -9.811842e+001  2.638740e+002
      vertex  1.270000e+002 -9.787985e+001  2.652780e+002
    endloop
  endfacet
  facet normal  0.000000e+000 -9.858704e-001  1.675099e-001
    outer loop
      vertex  1.270000e+002 -9.787985e+001  2.652780e+002
      vertex  1.397000e+002 -9.811842e+001  2.638740e+002
      vertex  1.397000e+002 -9.787985e+001  2.652780e+002
    endloop
  endfacet
  facet normal  0.000000e+000 -9.984271e-001  5.606577e-002
    outer loop
      vertex  1.270000e+002 -9.787985e+001  2.652780e+002
      vertex  1.397000e+002 -9.787985e+001  2.652780e+002
      vertex  1.270000e+002 -9.780000e+001  2.667000e+002
    endloop
  endfacet
  facet normal  0.000000e+000 -9.984271e-001  5.606577e-002
    outer loop
      vertex  1.270000e+002 -9.780000e+001  2.667000e+002
      vertex  1.397000e+002 -9.787985e+001  2.652780e+002
      vertex  1.397000e+002 -9.780000e+001  2.667000e+002
    endloop
  endfacet
  facet normal  0.000000e+000  1.000000e+000  0.000000e+000
    outer loop
      vertex  1.270000e+002 -1.232000e+002  2.917412e+002
      vertex  1.397000e+002 -1.232000e+002  2.917412e+002
      vertex  1.270000e+002 -1.232000e+002  2.667000e+002
    endloop
  endfacet
  facet normal  0.000000e+000  1.000000e+000  0.000000e+000
    outer loop
      vertex  1.270000e+002 -1.232000e+002  2.667000e+002
      vertex  1.397000e+002 -1.232000e+002  2.917412e+002
      vertex  1.397000e+002 -1.232000e+002  2.667000e+002
    endloop
  endfacet
endsolid CATIA STL
