solid CATIA STL
  facet normal -1.000000e+000  0.000000e+000  0.000000e+000
    outer loop
      vertex  1.397000e+002  5.687994e+001  3.165348e+002
      vertex  1.397000e+002  5.369873e+001  3.262009e+002
      vertex  1.397000e+002  5.535857e+001  3.213906e+002
    endloop
  endfacet
  facet normal -1.000000e+000  0.000000e+000  0.000000e+000
    outer loop
      vertex  1.397000e+002  1.524000e+002  1.270000e+001
      vertex  1.397000e+002 -1.524000e+002  1.270000e+001
      vertex  1.397000e+002  4.091590e+001  3.538872e+002
    endloop
  endfacet
  facet normal -1.000000e+000  0.000000e+000  0.000000e+000
    outer loop
      vertex  1.397000e+002  1.524000e+002  1.270000e+001
      vertex  1.397000e+002  4.091590e+001  3.538872e+002
      vertex  1.397000e+002  4.337406e+001  3.494318e+002
    endloop
  endfacet
  facet normal -1.000000e+000  0.000000e+000  0.000000e+000
    outer loop
      vertex  1.397000e+002  1.524000e+002  1.270000e+001
      vertex  1.397000e+002  4.337406e+001  3.494318e+002
      vertex  1.397000e+002  4.570359e+001  3.449077e+002
    endloop
  endfacet
  facet normal -9.999999e-001  0.000000e+000  0.000000e+000
    outer loop
      vertex  1.397000e+002  1.524000e+002  1.270000e+001
      vertex  1.397000e+002  4.570359e+001  3.449077e+002
      vertex  1.397000e+002  4.790257e+001  3.403189e+002
    endloop
  endfacet
  facet normal -9.999999e-001  0.000000e+000  0.000000e+000
    outer loop
      vertex  1.397000e+002  1.524000e+002  1.270000e+001
      vertex  1.397000e+002  4.790257e+001  3.403189e+002
      vertex  1.397000e+002  4.996920e+001  3.356689e+002
    endloop
  endfacet
  facet normal -1.000000e+000  0.000000e+000  0.000000e+000
    outer loop
      vertex  1.397000e+002  1.524000e+002  1.270000e+001
      vertex  1.397000e+002  4.996920e+001  3.356689e+002
      vertex  1.397000e+002  5.190178e+001  3.309616e+002
    endloop
  endfacet
  facet normal -1.000000e+000  0.000000e+000  0.000000e+000
    outer loop
      vertex  1.397000e+002  1.524000e+002  1.270000e+001
      vertex  1.397000e+002  5.190178e+001  3.309616e+002
      vertex  1.397000e+002  5.369873e+001  3.262009e+002
    endloop
  endfacet
  facet normal -1.000000e+000  0.000000e+000  0.000000e+000
    outer loop
      vertex  1.397000e+002  1.524000e+002  1.270000e+001
      vertex  1.397000e+002  5.369873e+001  3.262009e+002
      vertex  1.397000e+002  5.687994e+001  3.165348e+002
    endloop
  endfacet
  facet normal -1.000000e+000  0.000000e+000  0.000000e+000
    outer loop
      vertex  1.397000e+002  1.524000e+002  1.270000e+001
      vertex  1.397000e+002  5.687994e+001  3.165348e+002
      vertex  1.397000e+002  5.726212e+001  3.155120e+002
    endloop
  endfacet
  facet normal -9.999999e-001  0.000000e+000  0.000000e+000
    outer loop
      vertex  1.397000e+002  1.524000e+002  1.270000e+001
      vertex  1.397000e+002  5.726212e+001  3.155120e+002
      vertex  1.397000e+002  5.778001e+001  3.145508e+002
    endloop
  endfacet
  facet normal -9.999999e-001  0.000000e+000  0.000000e+000
    outer loop
      vertex  1.397000e+002  1.524000e+002  1.270000e+001
      vertex  1.397000e+002  5.778001e+001  3.145508e+002
      vertex  1.397000e+002  5.842397e+001  3.136690e+002
    endloop
  endfacet
  facet normal -9.999999e-001  0.000000e+000  0.000000e+000
    outer loop
      vertex  1.397000e+002  1.524000e+002  1.270000e+001
      vertex  1.397000e+002  5.842397e+001  3.136690e+002
      vertex  1.397000e+002  5.918200e+001  3.128831e+002
    endloop
  endfacet
  facet normal -1.000000e+000  0.000000e+000  0.000000e+000
    outer loop
      vertex  1.397000e+002  1.524000e+002  1.270000e+001
      vertex  1.397000e+002  5.918200e+001  3.128831e+002
      vertex  1.397000e+002  6.003998e+001  3.122078e+002
    endloop
  endfacet
  facet normal -9.999999e-001  0.000000e+000  0.000000e+000
    outer loop
      vertex  1.397000e+002  1.524000e+002  1.270000e+001
      vertex  1.397000e+002  6.003998e+001  3.122078e+002
      vertex  1.397000e+002  6.098192e+001  3.116556e+002
    endloop
  endfacet
  facet normal -1.000000e+000  0.000000e+000  0.000000e+000
    outer loop
      vertex  1.397000e+002  1.524000e+002  1.270000e+001
      vertex  1.397000e+002  6.098192e+001  3.116556e+002
      vertex  1.397000e+002  6.199029e+001  3.112368e+002
    endloop
  endfacet
  facet normal -1.000000e+000  0.000000e+000  0.000000e+000
    outer loop
      vertex  1.397000e+002  1.524000e+002  1.270000e+001
      vertex  1.397000e+002  6.199029e+001  3.112368e+002
      vertex  1.397000e+002  6.304629e+001  3.109592e+002
    endloop
  endfacet
  facet normal -1.000000e+000  0.000000e+000  0.000000e+000
    outer loop
      vertex  1.397000e+002  1.524000e+002  1.270000e+001
      vertex  1.397000e+002  6.304629e+001  3.109592e+002
      vertex  1.397000e+002  6.413025e+001  3.108279e+002
    endloop
  endfacet
  facet normal -9.999999e-001  0.000000e+000  0.000000e+000
    outer loop
      vertex  1.397000e+002  1.524000e+002  1.270000e+001
      vertex  1.397000e+002  6.413025e+001  3.108279e+002
      vertex  1.397000e+002  6.522198e+001  3.108456e+002
    endloop
  endfacet
  facet normal -1.000000e+000  0.000000e+000  0.000000e+000
    outer loop
      vertex  1.397000e+002  1.524000e+002  1.270000e+001
      vertex  1.397000e+002  6.522198e+001  3.108456e+002
      vertex  1.397000e+002  6.630116e+001  3.110116e+002
    endloop
  endfacet
  facet normal -1.000000e+000  0.000000e+000  0.000000e+000
    outer loop
      vertex  1.397000e+002  1.524000e+002  1.270000e+001
      vertex  1.397000e+002  6.630116e+001  3.110116e+002
      vertex  1.397000e+002  6.734766e+001  3.113231e+002
    endloop
  endfacet
  facet normal -1.000000e+000  0.000000e+000  0.000000e+000
    outer loop
      vertex  1.397000e+002  1.524000e+002  1.270000e+001
      vertex  1.397000e+002  6.734766e+001  3.113231e+002
      vertex  1.397000e+002  6.834201e+001  3.117742e+002
    endloop
  endfacet
  facet normal -1.000000e+000  0.000000e+000  0.000000e+000
    outer loop
      vertex  1.397000e+002  1.524000e+002  1.270000e+001
      vertex  1.397000e+002  6.834201e+001  3.117742e+002
      vertex  1.397000e+002  6.926566e+001  3.123565e+002
    endloop
  endfacet
  facet normal -1.000000e+000  0.000000e+000  0.000000e+000
    outer loop
      vertex  1.397000e+002  1.524000e+002  1.270000e+001
      vertex  1.397000e+002  6.926566e+001  3.123565e+002
      vertex  1.397000e+002  7.010143e+001  3.130591e+002
    endloop
  endfacet
  facet normal -1.000000e+000  0.000000e+000  0.000000e+000
    outer loop
      vertex  1.397000e+002  1.524000e+002  1.270000e+001
      vertex  1.397000e+002  7.010143e+001  3.130591e+002
      vertex  1.397000e+002  7.083374e+001  3.138690e+002
    endloop
  endfacet
  facet normal -1.000000e+000  0.000000e+000  0.000000e+000
    outer loop
      vertex  1.397000e+002  1.524000e+002  1.270000e+001
      vertex  1.397000e+002  7.083374e+001  3.138690e+002
      vertex  1.397000e+002  7.144895e+001  3.147711e+002
    endloop
  endfacet
  facet normal -9.999999e-001  0.000000e+000  0.000000e+000
    outer loop
      vertex  1.397000e+002  1.524000e+002  1.270000e+001
      vertex  1.397000e+002  7.144895e+001  3.147711e+002
      vertex  1.397000e+002  7.193560e+001  3.157485e+002
    endloop
  endfacet
  facet normal -1.000000e+000  0.000000e+000  0.000000e+000
    outer loop
      vertex  1.397000e+002  1.524000e+002  1.270000e+001
      vertex  1.397000e+002  7.193560e+001  3.157485e+002
      vertex  1.397000e+002  7.228461e+001  3.167831e+002
    endloop
  endfacet
  facet normal -1.000000e+000  0.000000e+000  0.000000e+000
    outer loop
      vertex  1.397000e+002  1.524000e+002  1.270000e+001
      vertex  1.397000e+002  7.228461e+001  3.167831e+002
      vertex  1.397000e+002  7.248951e+001  3.178556e+002
    endloop
  endfacet
  facet normal -1.000000e+000  0.000000e+000  0.000000e+000
    outer loop
      vertex  1.397000e+002  1.524000e+002  1.270000e+001
      vertex  1.397000e+002  7.248951e+001  3.178556e+002
      vertex  1.397000e+002  7.254646e+001  3.189460e+002
    endloop
  endfacet
  facet normal -1.000000e+000  0.000000e+000  0.000000e+000
    outer loop
      vertex  1.397000e+002  1.524000e+002  1.270000e+001
      vertex  1.397000e+002  7.254646e+001  3.189460e+002
      vertex  1.397000e+002  7.245440e+001  3.200340e+002
    endloop
  endfacet
  facet normal -9.999999e-001  0.000000e+000  0.000000e+000
    outer loop
      vertex  1.397000e+002  1.524000e+002  1.270000e+001
      vertex  1.397000e+002  7.245440e+001  3.200340e+002
      vertex  1.397000e+002  7.221505e+001  3.210993e+002
    endloop
  endfacet
  facet normal -1.000000e+000  0.000000e+000  0.000000e+000
    outer loop
      vertex  1.397000e+002  1.524000e+002  1.270000e+001
      vertex  1.397000e+002  7.221505e+001  3.210993e+002
      vertex  1.397000e+002  1.524000e+002  4.699000e+002
    endloop
  endfacet
  facet normal -1.000000e+000  0.000000e+000  0.000000e+000
    outer loop
      vertex  1.397000e+002  1.524000e+002  4.699000e+002
      vertex  1.397000e+002  7.221505e+001  3.210993e+002
      vertex  1.397000e+002  7.055664e+001  3.263925e+002
    endloop
  endfacet
  facet normal -1.000000e+000  0.000000e+000  0.000000e+000
    outer loop
      vertex  1.397000e+002  1.524000e+002  4.699000e+002
      vertex  1.397000e+002  7.055664e+001  3.263925e+002
      vertex  1.397000e+002  6.874728e+001  3.316360e+002
    endloop
  endfacet
  facet normal -1.000000e+000  0.000000e+000  0.000000e+000
    outer loop
      vertex  1.397000e+002  1.524000e+002  4.699000e+002
      vertex  1.397000e+002  6.874728e+001  3.316360e+002
      vertex  1.397000e+002  6.678847e+001  3.368256e+002
    endloop
  endfacet
  facet normal -1.000000e+000  0.000000e+000  0.000000e+000
    outer loop
      vertex  1.397000e+002  1.524000e+002  4.699000e+002
      vertex  1.397000e+002  6.678847e+001  3.368256e+002
      vertex  1.397000e+002  6.468180e+001  3.419569e+002
    endloop
  endfacet
  facet normal -1.000000e+000  0.000000e+000  0.000000e+000
    outer loop
      vertex  1.397000e+002  1.524000e+002  4.699000e+002
      vertex  1.397000e+002  6.468180e+001  3.419569e+002
      vertex  1.397000e+002  6.242902e+001  3.470258e+002
    endloop
  endfacet
  facet normal -1.000000e+000  0.000000e+000  0.000000e+000
    outer loop
      vertex  1.397000e+002  1.524000e+002  4.699000e+002
      vertex  1.397000e+002  6.242902e+001  3.470258e+002
      vertex  1.397000e+002  6.003196e+001  3.520280e+002
    endloop
  endfacet
  facet normal -1.000000e+000  0.000000e+000  0.000000e+000
    outer loop
      vertex  1.397000e+002  1.524000e+002  4.699000e+002
      vertex  1.397000e+002  6.003196e+001  3.520280e+002
      vertex  1.397000e+002  5.749260e+001  3.569595e+002
    endloop
  endfacet
  facet normal -1.000000e+000  0.000000e+000  0.000000e+000
    outer loop
      vertex  1.397000e+002  1.524000e+002  4.699000e+002
      vertex  1.397000e+002  5.749260e+001  3.569595e+002
      vertex  1.397000e+002  5.481301e+001  3.618163e+002
    endloop
  endfacet
  facet normal -9.999999e-001  0.000000e+000  0.000000e+000
    outer loop
      vertex  1.397000e+002  1.524000e+002  4.699000e+002
      vertex  1.397000e+002  5.481301e+001  3.618163e+002
      vertex  1.397000e+002  5.199540e+001  3.665943e+002
    endloop
  endfacet
  facet normal -1.000000e+000  0.000000e+000  0.000000e+000
    outer loop
      vertex  1.397000e+002  1.524000e+002  4.699000e+002
      vertex  1.397000e+002  5.199540e+001  3.665943e+002
      vertex  1.397000e+002  4.904209e+001  3.712897e+002
    endloop
  endfacet
  facet normal -1.000000e+000  0.000000e+000  0.000000e+000
    outer loop
      vertex  1.397000e+002  1.524000e+002  4.699000e+002
      vertex  1.397000e+002  4.904209e+001  3.712897e+002
      vertex  1.397000e+002  4.595549e+001  3.758985e+002
    endloop
  endfacet
  facet normal -1.000000e+000  0.000000e+000  0.000000e+000
    outer loop
      vertex  1.397000e+002  1.524000e+002  4.699000e+002
      vertex  1.397000e+002  4.595549e+001  3.758985e+002
      vertex  1.397000e+002  4.273813e+001  3.804170e+002
    endloop
  endfacet
  facet normal -1.000000e+000  0.000000e+000  0.000000e+000
    outer loop
      vertex  1.397000e+002  1.524000e+002  4.699000e+002
      vertex  1.397000e+002  4.273813e+001  3.804170e+002
      vertex  1.397000e+002  3.939267e+001  3.848415e+002
    endloop
  endfacet
  facet normal -1.000000e+000  0.000000e+000  0.000000e+000
    outer loop
      vertex  1.397000e+002  1.524000e+002  4.699000e+002
      vertex  1.397000e+002  3.939267e+001  3.848415e+002
      vertex  1.397000e+002  3.592183e+001  3.891684e+002
    endloop
  endfacet
  facet normal -9.999999e-001  0.000000e+000  0.000000e+000
    outer loop
      vertex  1.397000e+002  1.524000e+002  4.699000e+002
      vertex  1.397000e+002  3.592183e+001  3.891684e+002
      vertex  1.397000e+002  3.232848e+001  3.933940e+002
    endloop
  endfacet
  facet normal -1.000000e+000  0.000000e+000  0.000000e+000
    outer loop
      vertex  1.397000e+002  1.524000e+002  4.699000e+002
      vertex  1.397000e+002  3.232848e+001  3.933940e+002
      vertex  1.397000e+002  2.861556e+001  3.975150e+002
    endloop
  endfacet
  facet normal -1.000000e+000  0.000000e+000  0.000000e+000
    outer loop
      vertex  1.397000e+002  1.524000e+002  4.699000e+002
      vertex  1.397000e+002  2.861556e+001  3.975150e+002
      vertex  1.397000e+002  2.478612e+001  4.015280e+002
    endloop
  endfacet
  facet normal -1.000000e+000  0.000000e+000  0.000000e+000
    outer loop
      vertex  1.397000e+002  1.524000e+002  4.699000e+002
      vertex  1.397000e+002  2.478612e+001  4.015280e+002
      vertex  1.397000e+002  2.396970e+001  4.022530e+002
    endloop
  endfacet
  facet normal -1.000000e+000  0.000000e+000  0.000000e+000
    outer loop
      vertex  1.397000e+002  1.524000e+002  4.699000e+002
      vertex  1.397000e+002  2.396970e+001  4.022530e+002
      vertex  1.397000e+002  2.306216e+001  4.028601e+002
    endloop
  endfacet
  facet normal -1.000000e+000  0.000000e+000  0.000000e+000
    outer loop
      vertex  1.397000e+002  1.524000e+002  4.699000e+002
      vertex  1.397000e+002  2.306216e+001  4.028601e+002
      vertex  1.397000e+002  2.208040e+001  4.033380e+002
    endloop
  endfacet
  facet normal -1.000000e+000  0.000000e+000  0.000000e+000
    outer loop
      vertex  1.397000e+002  1.524000e+002  4.699000e+002
      vertex  1.397000e+002  2.208040e+001  4.033380e+002
      vertex  1.397000e+002  2.104272e+001  4.036777e+002
    endloop
  endfacet
  facet normal -9.999999e-001  0.000000e+000  0.000000e+000
    outer loop
      vertex  1.397000e+002  1.524000e+002  4.699000e+002
      vertex  1.397000e+002  2.104272e+001  4.036777e+002
      vertex  1.397000e+002  1.996845e+001  4.038730e+002
    endloop
  endfacet
  facet normal -1.000000e+000  0.000000e+000  0.000000e+000
    outer loop
      vertex  1.397000e+002  1.524000e+002  4.699000e+002
      vertex  1.397000e+002  1.996845e+001  4.038730e+002
      vertex  1.397000e+002  1.887759e+001  4.039201e+002
    endloop
  endfacet
  facet normal -1.000000e+000  0.000000e+000  0.000000e+000
    outer loop
      vertex  1.397000e+002  1.524000e+002  4.699000e+002
      vertex  1.397000e+002  1.887759e+001  4.039201e+002
      vertex  1.397000e+002 -1.524000e+002  4.699000e+002
    endloop
  endfacet
  facet normal -1.000000e+000  0.000000e+000  0.000000e+000
    outer loop
      vertex  1.397000e+002 -1.524000e+002  1.270000e+001
      vertex  1.397000e+002  1.147529e+001  3.984118e+002
      vertex  1.397000e+002  1.120716e+001  3.973534e+002
    endloop
  endfacet
  facet normal -1.000000e+000  0.000000e+000  0.000000e+000
    outer loop
      vertex  1.397000e+002 -1.524000e+002  1.270000e+001
      vertex  1.397000e+002  1.120716e+001  3.973534e+002
      vertex  1.397000e+002  1.108566e+001  3.962683e+002
    endloop
  endfacet
  facet normal -1.000000e+000  0.000000e+000  -0.000000e+000
    outer loop
      vertex  1.397000e+002 -1.524000e+002  1.270000e+001
      vertex  1.397000e+002  1.108566e+001  3.962683e+002
      vertex  1.397000e+002  1.111304e+001  3.951768e+002
    endloop
  endfacet
  facet normal -1.000000e+000  0.000000e+000  -0.000000e+000
    outer loop
      vertex  1.397000e+002 -1.524000e+002  1.270000e+001
      vertex  1.397000e+002  1.111304e+001  3.951768e+002
      vertex  1.397000e+002  1.128879e+001  3.940991e+002
    endloop
  endfacet
  facet normal -1.000000e+000  0.000000e+000  -0.000000e+000
    outer loop
      vertex  1.397000e+002 -1.524000e+002  1.270000e+001
      vertex  1.397000e+002  1.128879e+001  3.940991e+002
      vertex  1.397000e+002  1.160964e+001  3.930555e+002
    endloop
  endfacet
  facet normal -1.000000e+000  0.000000e+000  -0.000000e+000
    outer loop
      vertex  1.397000e+002 -1.524000e+002  1.270000e+001
      vertex  1.397000e+002  1.160964e+001  3.930555e+002
      vertex  1.397000e+002  1.206963e+001  3.920652e+002
    endloop
  endfacet
  facet normal -1.000000e+000  0.000000e+000  -0.000000e+000
    outer loop
      vertex  1.397000e+002 -1.524000e+002  1.270000e+001
      vertex  1.397000e+002  1.206963e+001  3.920652e+002
      vertex  1.397000e+002  1.266016e+001  3.911468e+002
    endloop
  endfacet
  facet normal -9.999999e-001  0.000000e+000  -0.000000e+000
    outer loop
      vertex  1.397000e+002 -1.524000e+002  1.270000e+001
      vertex  1.397000e+002  1.266016e+001  3.911468e+002
      vertex  1.397000e+002  1.337026e+001  3.903174e+002
    endloop
  endfacet
  facet normal -1.000000e+000  0.000000e+000  -0.000000e+000
    outer loop
      vertex  1.397000e+002 -1.524000e+002  1.270000e+001
      vertex  1.397000e+002  1.337026e+001  3.903174e+002
      vertex  1.397000e+002  1.688326e+001  3.866360e+002
    endloop
  endfacet
  facet normal -9.999999e-001  0.000000e+000  -0.000000e+000
    outer loop
      vertex  1.397000e+002 -1.524000e+002  1.270000e+001
      vertex  1.397000e+002  1.688326e+001  3.866360e+002
      vertex  1.397000e+002  2.028936e+001  3.828555e+002
    endloop
  endfacet
  facet normal -1.000000e+000  0.000000e+000  -0.000000e+000
    outer loop
      vertex  1.397000e+002 -1.524000e+002  1.270000e+001
      vertex  1.397000e+002  2.028936e+001  3.828555e+002
      vertex  1.397000e+002  2.358578e+001  3.789791e+002
    endloop
  endfacet
  facet normal -1.000000e+000  0.000000e+000  -0.000000e+000
    outer loop
      vertex  1.397000e+002 -1.524000e+002  1.270000e+001
      vertex  1.397000e+002  2.358578e+001  3.789791e+002
      vertex  1.397000e+002  2.676980e+001  3.750098e+002
    endloop
  endfacet
  facet normal -9.999999e-001  0.000000e+000  -0.000000e+000
    outer loop
      vertex  1.397000e+002 -1.524000e+002  1.270000e+001
      vertex  1.397000e+002  2.676980e+001  3.750098e+002
      vertex  1.397000e+002  2.983882e+001  3.709509e+002
    endloop
  endfacet
  facet normal -1.000000e+000  0.000000e+000  -0.000000e+000
    outer loop
      vertex  1.397000e+002 -1.524000e+002  1.270000e+001
      vertex  1.397000e+002  2.983882e+001  3.709509e+002
      vertex  1.397000e+002  3.279031e+001  3.668057e+002
    endloop
  endfacet
  facet normal -1.000000e+000  0.000000e+000  -0.000000e+000
    outer loop
      vertex  1.397000e+002 -1.524000e+002  1.270000e+001
      vertex  1.397000e+002  3.279031e+001  3.668057e+002
      vertex  1.397000e+002  3.562186e+001  3.625778e+002
    endloop
  endfacet
  facet normal -1.000000e+000  0.000000e+000  -0.000000e+000
    outer loop
      vertex  1.397000e+002 -1.524000e+002  1.270000e+001
      vertex  1.397000e+002  3.562186e+001  3.625778e+002
      vertex  1.397000e+002  3.833113e+001  3.582704e+002
    endloop
  endfacet
  facet normal -1.000000e+000  0.000000e+000  -0.000000e+000
    outer loop
      vertex  1.397000e+002 -1.524000e+002  1.270000e+001
      vertex  1.397000e+002  3.833113e+001  3.582704e+002
      vertex  1.397000e+002  4.091590e+001  3.538872e+002
    endloop
  endfacet
  facet normal -1.000000e+000  -0.000000e+000  0.000000e+000
    outer loop
      vertex  1.397000e+002 -1.524000e+002  4.699000e+002
      vertex  1.397000e+002  1.887759e+001  4.039201e+002
      vertex  1.397000e+002  1.779047e+001  4.038183e+002
    endloop
  endfacet
  facet normal -1.000000e+000  -0.000000e+000  0.000000e+000
    outer loop
      vertex  1.397000e+002 -1.524000e+002  4.699000e+002
      vertex  1.397000e+002  1.779047e+001  4.038183e+002
      vertex  1.397000e+002  1.672733e+001  4.035695e+002
    endloop
  endfacet
  facet normal -1.000000e+000  -0.000000e+000  0.000000e+000
    outer loop
      vertex  1.397000e+002 -1.524000e+002  4.699000e+002
      vertex  1.397000e+002  1.672733e+001  4.035695e+002
      vertex  1.397000e+002  1.570799e+001  4.031781e+002
    endloop
  endfacet
  facet normal -9.999999e-001  -0.000000e+000  0.000000e+000
    outer loop
      vertex  1.397000e+002 -1.524000e+002  4.699000e+002
      vertex  1.397000e+002  1.570799e+001  4.031781e+002
      vertex  1.397000e+002  1.475143e+001  4.026516e+002
    endloop
  endfacet
  facet normal -1.000000e+000  -0.000000e+000  0.000000e+000
    outer loop
      vertex  1.397000e+002 -1.524000e+002  4.699000e+002
      vertex  1.397000e+002  1.475143e+001  4.026516e+002
      vertex  1.397000e+002  1.387546e+001  4.019998e+002
    endloop
  endfacet
  facet normal -1.000000e+000  -0.000000e+000  0.000000e+000
    outer loop
      vertex  1.397000e+002 -1.524000e+002  4.699000e+002
      vertex  1.397000e+002  1.387546e+001  4.019998e+002
      vertex  1.397000e+002  1.309642e+001  4.012347e+002
    endloop
  endfacet
  facet normal -1.000000e+000  -0.000000e+000  0.000000e+000
    outer loop
      vertex  1.397000e+002 -1.524000e+002  4.699000e+002
      vertex  1.397000e+002  1.309642e+001  4.012347e+002
      vertex  1.397000e+002  1.242880e+001  4.003708e+002
    endloop
  endfacet
  facet normal -1.000000e+000  -0.000000e+000  0.000000e+000
    outer loop
      vertex  1.397000e+002 -1.524000e+002  4.699000e+002
      vertex  1.397000e+002  1.242880e+001  4.003708e+002
      vertex  1.397000e+002  1.188505e+001  3.994239e+002
    endloop
  endfacet
  facet normal -1.000000e+000  -0.000000e+000  0.000000e+000
    outer loop
      vertex  1.397000e+002 -1.524000e+002  4.699000e+002
      vertex  1.397000e+002  1.188505e+001  3.994239e+002
      vertex  1.397000e+002  1.147529e+001  3.984118e+002
    endloop
  endfacet
  facet normal -1.000000e+000  -0.000000e+000  0.000000e+000
    outer loop
      vertex  1.397000e+002 -1.524000e+002  4.699000e+002
      vertex  1.397000e+002  1.147529e+001  3.984118e+002
      vertex  1.397000e+002 -1.524000e+002  1.270000e+001
    endloop
  endfacet
  facet normal  1.000000e+000  0.000000e+000  0.000000e+000
    outer loop
      vertex  1.524000e+002  5.535857e+001  3.213906e+002
      vertex  1.524000e+002  5.369873e+001  3.262009e+002
      vertex  1.524000e+002  5.687994e+001  3.165348e+002
    endloop
  endfacet
  facet normal  1.000000e+000  0.000000e+000  0.000000e+000
    outer loop
      vertex  1.524000e+002  1.524000e+002  1.270000e+001
      vertex  1.524000e+002  1.524000e+002  4.699000e+002
      vertex  1.524000e+002  7.221505e+001  3.210993e+002
    endloop
  endfacet
  facet normal  9.999999e-001  0.000000e+000  0.000000e+000
    outer loop
      vertex  1.524000e+002  1.524000e+002  1.270000e+001
      vertex  1.524000e+002  7.221505e+001  3.210993e+002
      vertex  1.524000e+002  7.245440e+001  3.200340e+002
    endloop
  endfacet
  facet normal  1.000000e+000  0.000000e+000  0.000000e+000
    outer loop
      vertex  1.524000e+002  1.524000e+002  1.270000e+001
      vertex  1.524000e+002  7.245440e+001  3.200340e+002
      vertex  1.524000e+002  7.254646e+001  3.189460e+002
    endloop
  endfacet
  facet normal  1.000000e+000  0.000000e+000  0.000000e+000
    outer loop
      vertex  1.524000e+002  1.524000e+002  1.270000e+001
      vertex  1.524000e+002  7.254646e+001  3.189460e+002
      vertex  1.524000e+002  7.248951e+001  3.178556e+002
    endloop
  endfacet
  facet normal  1.000000e+000  0.000000e+000  0.000000e+000
    outer loop
      vertex  1.524000e+002  1.524000e+002  1.270000e+001
      vertex  1.524000e+002  7.248951e+001  3.178556e+002
      vertex  1.524000e+002  7.228461e+001  3.167831e+002
    endloop
  endfacet
  facet normal  1.000000e+000  0.000000e+000  0.000000e+000
    outer loop
      vertex  1.524000e+002  1.524000e+002  1.270000e+001
      vertex  1.524000e+002  7.228461e+001  3.167831e+002
      vertex  1.524000e+002  7.193560e+001  3.157485e+002
    endloop
  endfacet
  facet normal  9.999999e-001  0.000000e+000  0.000000e+000
    outer loop
      vertex  1.524000e+002  1.524000e+002  1.270000e+001
      vertex  1.524000e+002  7.193560e+001  3.157485e+002
      vertex  1.524000e+002  7.144895e+001  3.147711e+002
    endloop
  endfacet
  facet normal  1.000000e+000  0.000000e+000  0.000000e+000
    outer loop
      vertex  1.524000e+002  1.524000e+002  1.270000e+001
      vertex  1.524000e+002  7.144895e+001  3.147711e+002
      vertex  1.524000e+002  7.083374e+001  3.138690e+002
    endloop
  endfacet
  facet normal  1.000000e+000  0.000000e+000  0.000000e+000
    outer loop
      vertex  1.524000e+002  1.524000e+002  1.270000e+001
      vertex  1.524000e+002  7.083374e+001  3.138690e+002
      vertex  1.524000e+002  7.010143e+001  3.130591e+002
    endloop
  endfacet
  facet normal  1.000000e+000  0.000000e+000  0.000000e+000
    outer loop
      vertex  1.524000e+002  1.524000e+002  1.270000e+001
      vertex  1.524000e+002  7.010143e+001  3.130591e+002
      vertex  1.524000e+002  6.926566e+001  3.123565e+002
    endloop
  endfacet
  facet normal  1.000000e+000  0.000000e+000  0.000000e+000
    outer loop
      vertex  1.524000e+002  1.524000e+002  1.270000e+001
      vertex  1.524000e+002  6.926566e+001  3.123565e+002
      vertex  1.524000e+002  6.834201e+001  3.117742e+002
    endloop
  endfacet
  facet normal  1.000000e+000  0.000000e+000  0.000000e+000
    outer loop
      vertex  1.524000e+002  1.524000e+002  1.270000e+001
      vertex  1.524000e+002  6.834201e+001  3.117742e+002
      vertex  1.524000e+002  6.734766e+001  3.113231e+002
    endloop
  endfacet
  facet normal  1.000000e+000  0.000000e+000  0.000000e+000
    outer loop
      vertex  1.524000e+002  1.524000e+002  1.270000e+001
      vertex  1.524000e+002  6.734766e+001  3.113231e+002
      vertex  1.524000e+002  6.630116e+001  3.110116e+002
    endloop
  endfacet
  facet normal  1.000000e+000  0.000000e+000  0.000000e+000
    outer loop
      vertex  1.524000e+002  1.524000e+002  1.270000e+001
      vertex  1.524000e+002  6.630116e+001  3.110116e+002
      vertex  1.524000e+002  6.522198e+001  3.108456e+002
    endloop
  endfacet
  facet normal  9.999999e-001  0.000000e+000  0.000000e+000
    outer loop
      vertex  1.524000e+002  1.524000e+002  1.270000e+001
      vertex  1.524000e+002  6.522198e+001  3.108456e+002
      vertex  1.524000e+002  6.413025e+001  3.108279e+002
    endloop
  endfacet
  facet normal  1.000000e+000  0.000000e+000  0.000000e+000
    outer loop
      vertex  1.524000e+002  1.524000e+002  1.270000e+001
      vertex  1.524000e+002  6.413025e+001  3.108279e+002
      vertex  1.524000e+002  6.304629e+001  3.109592e+002
    endloop
  endfacet
  facet normal  1.000000e+000  0.000000e+000  0.000000e+000
    outer loop
      vertex  1.524000e+002  1.524000e+002  1.270000e+001
      vertex  1.524000e+002  6.304629e+001  3.109592e+002
      vertex  1.524000e+002  6.199029e+001  3.112368e+002
    endloop
  endfacet
  facet normal  1.000000e+000  0.000000e+000  0.000000e+000
    outer loop
      vertex  1.524000e+002  1.524000e+002  1.270000e+001
      vertex  1.524000e+002  6.199029e+001  3.112368e+002
      vertex  1.524000e+002  6.098192e+001  3.116556e+002
    endloop
  endfacet
  facet normal  9.999999e-001  0.000000e+000  0.000000e+000
    outer loop
      vertex  1.524000e+002  1.524000e+002  1.270000e+001
      vertex  1.524000e+002  6.098192e+001  3.116556e+002
      vertex  1.524000e+002  6.003998e+001  3.122078e+002
    endloop
  endfacet
  facet normal  1.000000e+000  0.000000e+000  0.000000e+000
    outer loop
      vertex  1.524000e+002  1.524000e+002  1.270000e+001
      vertex  1.524000e+002  6.003998e+001  3.122078e+002
      vertex  1.524000e+002  5.918200e+001  3.128831e+002
    endloop
  endfacet
  facet normal  9.999999e-001  0.000000e+000  0.000000e+000
    outer loop
      vertex  1.524000e+002  1.524000e+002  1.270000e+001
      vertex  1.524000e+002  5.918200e+001  3.128831e+002
      vertex  1.524000e+002  5.842397e+001  3.136690e+002
    endloop
  endfacet
  facet normal  9.999999e-001  0.000000e+000  0.000000e+000
    outer loop
      vertex  1.524000e+002  1.524000e+002  1.270000e+001
      vertex  1.524000e+002  5.842397e+001  3.136690e+002
      vertex  1.524000e+002  5.778001e+001  3.145508e+002
    endloop
  endfacet
  facet normal  9.999999e-001  0.000000e+000  0.000000e+000
    outer loop
      vertex  1.524000e+002  1.524000e+002  1.270000e+001
      vertex  1.524000e+002  5.778001e+001  3.145508e+002
      vertex  1.524000e+002  5.726212e+001  3.155120e+002
    endloop
  endfacet
  facet normal  1.000000e+000  0.000000e+000  0.000000e+000
    outer loop
      vertex  1.524000e+002  1.524000e+002  1.270000e+001
      vertex  1.524000e+002  5.726212e+001  3.155120e+002
      vertex  1.524000e+002  5.687994e+001  3.165348e+002
    endloop
  endfacet
  facet normal  1.000000e+000  0.000000e+000  0.000000e+000
    outer loop
      vertex  1.524000e+002  1.524000e+002  1.270000e+001
      vertex  1.524000e+002  5.687994e+001  3.165348e+002
      vertex  1.524000e+002  5.369873e+001  3.262009e+002
    endloop
  endfacet
  facet normal  1.000000e+000  0.000000e+000  0.000000e+000
    outer loop
      vertex  1.524000e+002  1.524000e+002  1.270000e+001
      vertex  1.524000e+002  5.369873e+001  3.262009e+002
      vertex  1.524000e+002  5.190178e+001  3.309616e+002
    endloop
  endfacet
  facet normal  1.000000e+000  0.000000e+000  0.000000e+000
    outer loop
      vertex  1.524000e+002  1.524000e+002  1.270000e+001
      vertex  1.524000e+002  5.190178e+001  3.309616e+002
      vertex  1.524000e+002  4.996920e+001  3.356689e+002
    endloop
  endfacet
  facet normal  1.000000e+000  0.000000e+000  0.000000e+000
    outer loop
      vertex  1.524000e+002  1.524000e+002  1.270000e+001
      vertex  1.524000e+002  4.996920e+001  3.356689e+002
      vertex  1.524000e+002  4.790257e+001  3.403189e+002
    endloop
  endfacet
  facet normal  9.999999e-001  0.000000e+000  0.000000e+000
    outer loop
      vertex  1.524000e+002  1.524000e+002  1.270000e+001
      vertex  1.524000e+002  4.790257e+001  3.403189e+002
      vertex  1.524000e+002  4.570359e+001  3.449077e+002
    endloop
  endfacet
  facet normal  1.000000e+000  0.000000e+000  0.000000e+000
    outer loop
      vertex  1.524000e+002  1.524000e+002  1.270000e+001
      vertex  1.524000e+002  4.570359e+001  3.449077e+002
      vertex  1.524000e+002  4.337406e+001  3.494318e+002
    endloop
  endfacet
  facet normal  1.000000e+000  0.000000e+000  0.000000e+000
    outer loop
      vertex  1.524000e+002  1.524000e+002  1.270000e+001
      vertex  1.524000e+002  4.337406e+001  3.494318e+002
      vertex  1.524000e+002  4.091590e+001  3.538872e+002
    endloop
  endfacet
  facet normal  1.000000e+000  0.000000e+000  0.000000e+000
    outer loop
      vertex  1.524000e+002  1.524000e+002  1.270000e+001
      vertex  1.524000e+002  4.091590e+001  3.538872e+002
      vertex  1.524000e+002 -1.524000e+002  1.270000e+001
    endloop
  endfacet
  facet normal  1.000000e+000  -0.000000e+000  0.000000e+000
    outer loop
      vertex  1.524000e+002  1.524000e+002  4.699000e+002
      vertex  1.524000e+002 -1.524000e+002  4.699000e+002
      vertex  1.524000e+002  1.887759e+001  4.039201e+002
    endloop
  endfacet
  facet normal  1.000000e+000  -0.000000e+000  0.000000e+000
    outer loop
      vertex  1.524000e+002  1.524000e+002  4.699000e+002
      vertex  1.524000e+002  1.887759e+001  4.039201e+002
      vertex  1.524000e+002  1.996845e+001  4.038730e+002
    endloop
  endfacet
  facet normal  9.999999e-001  -0.000000e+000  0.000000e+000
    outer loop
      vertex  1.524000e+002  1.524000e+002  4.699000e+002
      vertex  1.524000e+002  1.996845e+001  4.038730e+002
      vertex  1.524000e+002  2.104272e+001  4.036777e+002
    endloop
  endfacet
  facet normal  1.000000e+000  -0.000000e+000  0.000000e+000
    outer loop
      vertex  1.524000e+002  1.524000e+002  4.699000e+002
      vertex  1.524000e+002  2.104272e+001  4.036777e+002
      vertex  1.524000e+002  2.208040e+001  4.033380e+002
    endloop
  endfacet
  facet normal  1.000000e+000  -0.000000e+000  0.000000e+000
    outer loop
      vertex  1.524000e+002  1.524000e+002  4.699000e+002
      vertex  1.524000e+002  2.208040e+001  4.033380e+002
      vertex  1.524000e+002  2.306216e+001  4.028601e+002
    endloop
  endfacet
  facet normal  1.000000e+000  -0.000000e+000  0.000000e+000
    outer loop
      vertex  1.524000e+002  1.524000e+002  4.699000e+002
      vertex  1.524000e+002  2.306216e+001  4.028601e+002
      vertex  1.524000e+002  2.396970e+001  4.022530e+002
    endloop
  endfacet
  facet normal  1.000000e+000  -0.000000e+000  0.000000e+000
    outer loop
      vertex  1.524000e+002  1.524000e+002  4.699000e+002
      vertex  1.524000e+002  2.396970e+001  4.022530e+002
      vertex  1.524000e+002  2.478612e+001  4.015280e+002
    endloop
  endfacet
  facet normal  1.000000e+000  -0.000000e+000  0.000000e+000
    outer loop
      vertex  1.524000e+002  1.524000e+002  4.699000e+002
      vertex  1.524000e+002  2.478612e+001  4.015280e+002
      vertex  1.524000e+002  2.861556e+001  3.975150e+002
    endloop
  endfacet
  facet normal  1.000000e+000  -0.000000e+000  0.000000e+000
    outer loop
      vertex  1.524000e+002  1.524000e+002  4.699000e+002
      vertex  1.524000e+002  2.861556e+001  3.975150e+002
      vertex  1.524000e+002  3.232848e+001  3.933940e+002
    endloop
  endfacet
  facet normal  1.000000e+000  -0.000000e+000  0.000000e+000
    outer loop
      vertex  1.524000e+002  1.524000e+002  4.699000e+002
      vertex  1.524000e+002  3.232848e+001  3.933940e+002
      vertex  1.524000e+002  3.592183e+001  3.891684e+002
    endloop
  endfacet
  facet normal  1.000000e+000  -0.000000e+000  0.000000e+000
    outer loop
      vertex  1.524000e+002  1.524000e+002  4.699000e+002
      vertex  1.524000e+002  3.592183e+001  3.891684e+002
      vertex  1.524000e+002  3.939267e+001  3.848415e+002
    endloop
  endfacet
  facet normal  1.000000e+000  -0.000000e+000  0.000000e+000
    outer loop
      vertex  1.524000e+002  1.524000e+002  4.699000e+002
      vertex  1.524000e+002  3.939267e+001  3.848415e+002
      vertex  1.524000e+002  4.273813e+001  3.804170e+002
    endloop
  endfacet
  facet normal  1.000000e+000  -0.000000e+000  0.000000e+000
    outer loop
      vertex  1.524000e+002  1.524000e+002  4.699000e+002
      vertex  1.524000e+002  4.273813e+001  3.804170e+002
      vertex  1.524000e+002  4.595549e+001  3.758985e+002
    endloop
  endfacet
  facet normal  1.000000e+000  -0.000000e+000  0.000000e+000
    outer loop
      vertex  1.524000e+002  1.524000e+002  4.699000e+002
      vertex  1.524000e+002  4.595549e+001  3.758985e+002
      vertex  1.524000e+002  4.904209e+001  3.712897e+002
    endloop
  endfacet
  facet normal  1.000000e+000  -0.000000e+000  0.000000e+000
    outer loop
      vertex  1.524000e+002  1.524000e+002  4.699000e+002
      vertex  1.524000e+002  4.904209e+001  3.712897e+002
      vertex  1.524000e+002  5.199540e+001  3.665943e+002
    endloop
  endfacet
  facet normal  9.999999e-001  -0.000000e+000  0.000000e+000
    outer loop
      vertex  1.524000e+002  1.524000e+002  4.699000e+002
      vertex  1.524000e+002  5.199540e+001  3.665943e+002
      vertex  1.524000e+002  5.481301e+001  3.618163e+002
    endloop
  endfacet
  facet normal  1.000000e+000  -0.000000e+000  0.000000e+000
    outer loop
      vertex  1.524000e+002  1.524000e+002  4.699000e+002
      vertex  1.524000e+002  5.481301e+001  3.618163e+002
      vertex  1.524000e+002  5.749260e+001  3.569595e+002
    endloop
  endfacet
  facet normal  1.000000e+000  -0.000000e+000  0.000000e+000
    outer loop
      vertex  1.524000e+002  1.524000e+002  4.699000e+002
      vertex  1.524000e+002  5.749260e+001  3.569595e+002
      vertex  1.524000e+002  6.003196e+001  3.520280e+002
    endloop
  endfacet
  facet normal  1.000000e+000  -0.000000e+000  0.000000e+000
    outer loop
      vertex  1.524000e+002  1.524000e+002  4.699000e+002
      vertex  1.524000e+002  6.003196e+001  3.520280e+002
      vertex  1.524000e+002  6.242902e+001  3.470258e+002
    endloop
  endfacet
  facet normal  1.000000e+000  -0.000000e+000  0.000000e+000
    outer loop
      vertex  1.524000e+002  1.524000e+002  4.699000e+002
      vertex  1.524000e+002  6.242902e+001  3.470258e+002
      vertex  1.524000e+002  6.468180e+001  3.419569e+002
    endloop
  endfacet
  facet normal  1.000000e+000  -0.000000e+000  0.000000e+000
    outer loop
      vertex  1.524000e+002  1.524000e+002  4.699000e+002
      vertex  1.524000e+002  6.468180e+001  3.419569e+002
      vertex  1.524000e+002  6.678847e+001  3.368256e+002
    endloop
  endfacet
  facet normal  1.000000e+000  -0.000000e+000  0.000000e+000
    outer loop
      vertex  1.524000e+002  1.524000e+002  4.699000e+002
      vertex  1.524000e+002  6.678847e+001  3.368256e+002
      vertex  1.524000e+002  6.874728e+001  3.316360e+002
    endloop
  endfacet
  facet normal  1.000000e+000  -0.000000e+000  0.000000e+000
    outer loop
      vertex  1.524000e+002  1.524000e+002  4.699000e+002
      vertex  1.524000e+002  6.874728e+001  3.316360e+002
      vertex  1.524000e+002  7.055664e+001  3.263925e+002
    endloop
  endfacet
  facet normal  1.000000e+000  -0.000000e+000  0.000000e+000
    outer loop
      vertex  1.524000e+002  1.524000e+002  4.699000e+002
      vertex  1.524000e+002  7.055664e+001  3.263925e+002
      vertex  1.524000e+002  7.221505e+001  3.210993e+002
    endloop
  endfacet
  facet normal  1.000000e+000  0.000000e+000  0.000000e+000
    outer loop
      vertex  1.524000e+002 -1.524000e+002  1.270000e+001
      vertex  1.524000e+002  4.091590e+001  3.538872e+002
      vertex  1.524000e+002  3.833113e+001  3.582704e+002
    endloop
  endfacet
  facet normal  1.000000e+000  0.000000e+000  0.000000e+000
    outer loop
      vertex  1.524000e+002 -1.524000e+002  1.270000e+001
      vertex  1.524000e+002  3.833113e+001  3.582704e+002
      vertex  1.524000e+002  3.562186e+001  3.625778e+002
    endloop
  endfacet
  facet normal  1.000000e+000  0.000000e+000  0.000000e+000
    outer loop
      vertex  1.524000e+002 -1.524000e+002  1.270000e+001
      vertex  1.524000e+002  3.562186e+001  3.625778e+002
      vertex  1.524000e+002  3.279031e+001  3.668057e+002
    endloop
  endfacet
  facet normal  1.000000e+000  0.000000e+000  0.000000e+000
    outer loop
      vertex  1.524000e+002 -1.524000e+002  1.270000e+001
      vertex  1.524000e+002  3.279031e+001  3.668057e+002
      vertex  1.524000e+002  2.983882e+001  3.709509e+002
    endloop
  endfacet
  facet normal  9.999999e-001  0.000000e+000  0.000000e+000
    outer loop
      vertex  1.524000e+002 -1.524000e+002  1.270000e+001
      vertex  1.524000e+002  2.983882e+001  3.709509e+002
      vertex  1.524000e+002  2.676980e+001  3.750098e+002
    endloop
  endfacet
  facet normal  1.000000e+000  0.000000e+000  0.000000e+000
    outer loop
      vertex  1.524000e+002 -1.524000e+002  1.270000e+001
      vertex  1.524000e+002  2.676980e+001  3.750098e+002
      vertex  1.524000e+002  2.358578e+001  3.789791e+002
    endloop
  endfacet
  facet normal  1.000000e+000  0.000000e+000  0.000000e+000
    outer loop
      vertex  1.524000e+002 -1.524000e+002  1.270000e+001
      vertex  1.524000e+002  2.358578e+001  3.789791e+002
      vertex  1.524000e+002  2.028936e+001  3.828555e+002
    endloop
  endfacet
  facet normal  9.999999e-001  0.000000e+000  0.000000e+000
    outer loop
      vertex  1.524000e+002 -1.524000e+002  1.270000e+001
      vertex  1.524000e+002  2.028936e+001  3.828555e+002
      vertex  1.524000e+002  1.688326e+001  3.866360e+002
    endloop
  endfacet
  facet normal  1.000000e+000  0.000000e+000  0.000000e+000
    outer loop
      vertex  1.524000e+002 -1.524000e+002  1.270000e+001
      vertex  1.524000e+002  1.688326e+001  3.866360e+002
      vertex  1.524000e+002  1.337026e+001  3.903174e+002
    endloop
  endfacet
  facet normal  9.999999e-001  0.000000e+000  0.000000e+000
    outer loop
      vertex  1.524000e+002 -1.524000e+002  1.270000e+001
      vertex  1.524000e+002  1.337026e+001  3.903174e+002
      vertex  1.524000e+002  1.266016e+001  3.911468e+002
    endloop
  endfacet
  facet normal  1.000000e+000  0.000000e+000  0.000000e+000
    outer loop
      vertex  1.524000e+002 -1.524000e+002  1.270000e+001
      vertex  1.524000e+002  1.266016e+001  3.911468e+002
      vertex  1.524000e+002  1.206963e+001  3.920652e+002
    endloop
  endfacet
  facet normal  1.000000e+000  0.000000e+000  0.000000e+000
    outer loop
      vertex  1.524000e+002 -1.524000e+002  1.270000e+001
      vertex  1.524000e+002  1.206963e+001  3.920652e+002
      vertex  1.524000e+002  1.160964e+001  3.930555e+002
    endloop
  endfacet
  facet normal  1.000000e+000  0.000000e+000  0.000000e+000
    outer loop
      vertex  1.524000e+002 -1.524000e+002  1.270000e+001
      vertex  1.524000e+002  1.160964e+001  3.930555e+002
      vertex  1.524000e+002  1.128879e+001  3.940991e+002
    endloop
  endfacet
  facet normal  1.000000e+000  0.000000e+000  0.000000e+000
    outer loop
      vertex  1.524000e+002 -1.524000e+002  1.270000e+001
      vertex  1.524000e+002  1.128879e+001  3.940991e+002
      vertex  1.524000e+002  1.111304e+001  3.951768e+002
    endloop
  endfacet
  facet normal  1.000000e+000  0.000000e+000  0.000000e+000
    outer loop
      vertex  1.524000e+002 -1.524000e+002  1.270000e+001
      vertex  1.524000e+002  1.111304e+001  3.951768e+002
      vertex  1.524000e+002  1.108566e+001  3.962683e+002
    endloop
  endfacet
  facet normal  1.000000e+000  0.000000e+000  -0.000000e+000
    outer loop
      vertex  1.524000e+002 -1.524000e+002  1.270000e+001
      vertex  1.524000e+002  1.108566e+001  3.962683e+002
      vertex  1.524000e+002  1.120716e+001  3.973534e+002
    endloop
  endfacet
  facet normal  1.000000e+000  0.000000e+000  -0.000000e+000
    outer loop
      vertex  1.524000e+002 -1.524000e+002  1.270000e+001
      vertex  1.524000e+002  1.120716e+001  3.973534e+002
      vertex  1.524000e+002  1.147529e+001  3.984118e+002
    endloop
  endfacet
  facet normal  1.000000e+000  0.000000e+000  0.000000e+000
    outer loop
      vertex  1.524000e+002 -1.524000e+002  4.699000e+002
      vertex  1.524000e+002 -1.524000e+002  1.270000e+001
      vertex  1.524000e+002  1.147529e+001  3.984118e+002
    endloop
  endfacet
  facet normal  1.000000e+000  0.000000e+000  -0.000000e+000
    outer loop
      vertex  1.524000e+002 -1.524000e+002  4.699000e+002
      vertex  1.524000e+002  1.147529e+001  3.984118e+002
      vertex  1.524000e+002  1.188505e+001  3.994239e+002
    endloop
  endfacet
  facet normal  1.000000e+000  0.000000e+000  -0.000000e+000
    outer loop
      vertex  1.524000e+002 -1.524000e+002  4.699000e+002
      vertex  1.524000e+002  1.188505e+001  3.994239e+002
      vertex  1.524000e+002  1.242880e+001  4.003708e+002
    endloop
  endfacet
  facet normal  1.000000e+000  0.000000e+000  -0.000000e+000
    outer loop
      vertex  1.524000e+002 -1.524000e+002  4.699000e+002
      vertex  1.524000e+002  1.242880e+001  4.003708e+002
      vertex  1.524000e+002  1.309642e+001  4.012347e+002
    endloop
  endfacet
  facet normal  1.000000e+000  0.000000e+000  -0.000000e+000
    outer loop
      vertex  1.524000e+002 -1.524000e+002  4.699000e+002
      vertex  1.524000e+002  1.309642e+001  4.012347e+002
      vertex  1.524000e+002  1.387546e+001  4.019998e+002
    endloop
  endfacet
  facet normal  1.000000e+000  0.000000e+000  -0.000000e+000
    outer loop
      vertex  1.524000e+002 -1.524000e+002  4.699000e+002
      vertex  1.524000e+002  1.387546e+001  4.019998e+002
      vertex  1.524000e+002  1.475143e+001  4.026516e+002
    endloop
  endfacet
  facet normal  9.999999e-001  0.000000e+000  -0.000000e+000
    outer loop
      vertex  1.524000e+002 -1.524000e+002  4.699000e+002
      vertex  1.524000e+002  1.475143e+001  4.026516e+002
      vertex  1.524000e+002  1.570799e+001  4.031781e+002
    endloop
  endfacet
  facet normal  1.000000e+000  0.000000e+000  -0.000000e+000
    outer loop
      vertex  1.524000e+002 -1.524000e+002  4.699000e+002
      vertex  1.524000e+002  1.570799e+001  4.031781e+002
      vertex  1.524000e+002  1.672733e+001  4.035695e+002
    endloop
  endfacet
  facet normal  1.000000e+000  0.000000e+000  -0.000000e+000
    outer loop
      vertex  1.524000e+002 -1.524000e+002  4.699000e+002
      vertex  1.524000e+002  1.672733e+001  4.035695e+002
      vertex  1.524000e+002  1.779047e+001  4.038183e+002
    endloop
  endfacet
  facet normal  1.000000e+000  0.000000e+000  -0.000000e+000
    outer loop
      vertex  1.524000e+002 -1.524000e+002  4.699000e+002
      vertex  1.524000e+002  1.779047e+001  4.038183e+002
      vertex  1.524000e+002  1.887759e+001  4.039201e+002
    endloop
  endfacet
  facet normal  -0.000000e+000 -9.542596e-001 -2.989795e-001
    outer loop
      vertex  1.397000e+002  7.221505e+001  3.210993e+002
      vertex  1.524000e+002  7.221505e+001  3.210993e+002
      vertex  1.397000e+002  7.055664e+001  3.263925e+002
    endloop
  endfacet
  facet normal  0.000000e+000 -9.542596e-001 -2.989795e-001
    outer loop
      vertex  1.397000e+002  7.055664e+001  3.263925e+002
      vertex  1.524000e+002  7.221505e+001  3.210993e+002
      vertex  1.524000e+002  7.055664e+001  3.263925e+002
    endloop
  endfacet
  facet normal  -0.000000e+000 -9.453039e-001 -3.261909e-001
    outer loop
      vertex  1.397000e+002  7.055664e+001  3.263925e+002
      vertex  1.524000e+002  7.055664e+001  3.263925e+002
      vertex  1.397000e+002  6.874728e+001  3.316360e+002
    endloop
  endfacet
  facet normal  0.000000e+000 -9.453039e-001 -3.261909e-001
    outer loop
      vertex  1.397000e+002  6.874728e+001  3.316360e+002
      vertex  1.524000e+002  7.055664e+001  3.263925e+002
      vertex  1.524000e+002  6.874728e+001  3.316360e+002
    endloop
  endfacet
  facet normal  -0.000000e+000 -9.355727e-001 -3.531340e-001
    outer loop
      vertex  1.397000e+002  6.874728e+001  3.316360e+002
      vertex  1.524000e+002  6.874728e+001  3.316360e+002
      vertex  1.397000e+002  6.678847e+001  3.368256e+002
    endloop
  endfacet
  facet normal  0.000000e+000 -9.355727e-001 -3.531340e-001
    outer loop
      vertex  1.397000e+002  6.678847e+001  3.368256e+002
      vertex  1.524000e+002  6.874728e+001  3.316360e+002
      vertex  1.524000e+002  6.678847e+001  3.368256e+002
    endloop
  endfacet
  facet normal  -0.000000e+000 -9.250721e-001 -3.797914e-001
    outer loop
      vertex  1.397000e+002  6.678847e+001  3.368256e+002
      vertex  1.524000e+002  6.678847e+001  3.368256e+002
      vertex  1.397000e+002  6.468180e+001  3.419569e+002
    endloop
  endfacet
  facet normal  0.000000e+000 -9.250721e-001 -3.797914e-001
    outer loop
      vertex  1.397000e+002  6.468180e+001  3.419569e+002
      vertex  1.524000e+002  6.678847e+001  3.368256e+002
      vertex  1.524000e+002  6.468180e+001  3.419569e+002
    endloop
  endfacet
  facet normal  -0.000000e+000 -9.138150e-001 -4.061309e-001
    outer loop
      vertex  1.397000e+002  6.468180e+001  3.419569e+002
      vertex  1.524000e+002  6.468180e+001  3.419569e+002
      vertex  1.397000e+002  6.242902e+001  3.470258e+002
    endloop
  endfacet
  facet normal  0.000000e+000 -9.138150e-001 -4.061309e-001
    outer loop
      vertex  1.397000e+002  6.242902e+001  3.470258e+002
      vertex  1.524000e+002  6.468180e+001  3.419569e+002
      vertex  1.524000e+002  6.242902e+001  3.470258e+002
    endloop
  endfacet
  facet normal  -0.000000e+000 -9.018051e-001 -4.321430e-001
    outer loop
      vertex  1.397000e+002  6.242902e+001  3.470258e+002
      vertex  1.524000e+002  6.242902e+001  3.470258e+002
      vertex  1.397000e+002  6.003196e+001  3.520280e+002
    endloop
  endfacet
  facet normal  0.000000e+000 -9.018051e-001 -4.321430e-001
    outer loop
      vertex  1.397000e+002  6.003196e+001  3.520280e+002
      vertex  1.524000e+002  6.242902e+001  3.470258e+002
      vertex  1.524000e+002  6.003196e+001  3.520280e+002
    endloop
  endfacet
  facet normal  -0.000000e+000 -8.890576e-001 -4.577954e-001
    outer loop
      vertex  1.397000e+002  6.003196e+001  3.520280e+002
      vertex  1.524000e+002  6.003196e+001  3.520280e+002
      vertex  1.397000e+002  5.749260e+001  3.569595e+002
    endloop
  endfacet
  facet normal  0.000000e+000 -8.890576e-001 -4.577954e-001
    outer loop
      vertex  1.397000e+002  5.749260e+001  3.569595e+002
      vertex  1.524000e+002  6.003196e+001  3.520280e+002
      vertex  1.524000e+002  5.749260e+001  3.569595e+002
    endloop
  endfacet
  facet normal  -0.000000e+000 -8.755779e-001 -4.830771e-001
    outer loop
      vertex  1.397000e+002  5.749260e+001  3.569595e+002
      vertex  1.524000e+002  5.749260e+001  3.569595e+002
      vertex  1.397000e+002  5.481301e+001  3.618163e+002
    endloop
  endfacet
  facet normal  0.000000e+000 -8.755779e-001 -4.830771e-001
    outer loop
      vertex  1.397000e+002  5.481301e+001  3.618163e+002
      vertex  1.524000e+002  5.749260e+001  3.569595e+002
      vertex  1.524000e+002  5.481301e+001  3.618163e+002
    endloop
  endfacet
  facet normal  -0.000000e+000 -8.613814e-001 -5.079588e-001
    outer loop
      vertex  1.397000e+002  5.481301e+001  3.618163e+002
      vertex  1.524000e+002  5.481301e+001  3.618163e+002
      vertex  1.397000e+002  5.199540e+001  3.665943e+002
    endloop
  endfacet
  facet normal  0.000000e+000 -8.613814e-001 -5.079588e-001
    outer loop
      vertex  1.397000e+002  5.199540e+001  3.665943e+002
      vertex  1.524000e+002  5.481301e+001  3.618163e+002
      vertex  1.524000e+002  5.199540e+001  3.665943e+002
    endloop
  endfacet
  facet normal  -0.000000e+000 -8.464791e-001 -5.324219e-001
    outer loop
      vertex  1.397000e+002  5.199540e+001  3.665943e+002
      vertex  1.524000e+002  5.199540e+001  3.665943e+002
      vertex  1.397000e+002  4.904209e+001  3.712897e+002
    endloop
  endfacet
  facet normal  0.000000e+000 -8.464791e-001 -5.324219e-001
    outer loop
      vertex  1.397000e+002  4.904209e+001  3.712897e+002
      vertex  1.524000e+002  5.199540e+001  3.665943e+002
      vertex  1.524000e+002  4.904209e+001  3.712897e+002
    endloop
  endfacet
  facet normal  -0.000000e+000 -8.308793e-001 -5.564526e-001
    outer loop
      vertex  1.397000e+002  4.904209e+001  3.712897e+002
      vertex  1.524000e+002  4.904209e+001  3.712897e+002
      vertex  1.397000e+002  4.595549e+001  3.758985e+002
    endloop
  endfacet
  facet normal  0.000000e+000 -8.308793e-001 -5.564526e-001
    outer loop
      vertex  1.397000e+002  4.595549e+001  3.758985e+002
      vertex  1.524000e+002  4.904209e+001  3.712897e+002
      vertex  1.524000e+002  4.595549e+001  3.758985e+002
    endloop
  endfacet
  facet normal  -0.000000e+000 -8.145973e-001 -5.800269e-001
    outer loop
      vertex  1.397000e+002  4.595549e+001  3.758985e+002
      vertex  1.524000e+002  4.595549e+001  3.758985e+002
      vertex  1.397000e+002  4.273813e+001  3.804170e+002
    endloop
  endfacet
  facet normal  0.000000e+000 -8.145973e-001 -5.800269e-001
    outer loop
      vertex  1.397000e+002  4.273813e+001  3.804170e+002
      vertex  1.524000e+002  4.595549e+001  3.758985e+002
      vertex  1.524000e+002  4.273813e+001  3.804170e+002
    endloop
  endfacet
  facet normal  -0.000000e+000 -7.976496e-001 -6.031213e-001
    outer loop
      vertex  1.397000e+002  4.273813e+001  3.804170e+002
      vertex  1.524000e+002  4.273813e+001  3.804170e+002
      vertex  1.397000e+002  3.939267e+001  3.848415e+002
    endloop
  endfacet
  facet normal  0.000000e+000 -7.976496e-001 -6.031213e-001
    outer loop
      vertex  1.397000e+002  3.939267e+001  3.848415e+002
      vertex  1.524000e+002  4.273813e+001  3.804170e+002
      vertex  1.524000e+002  3.939267e+001  3.848415e+002
    endloop
  endfacet
  facet normal  -0.000000e+000 -7.800469e-001 -6.257210e-001
    outer loop
      vertex  1.397000e+002  3.939267e+001  3.848415e+002
      vertex  1.524000e+002  3.939267e+001  3.848415e+002
      vertex  1.397000e+002  3.592183e+001  3.891684e+002
    endloop
  endfacet
  facet normal  0.000000e+000 -7.800469e-001 -6.257210e-001
    outer loop
      vertex  1.397000e+002  3.592183e+001  3.891684e+002
      vertex  1.524000e+002  3.939267e+001  3.848415e+002
      vertex  1.524000e+002  3.592183e+001  3.891684e+002
    endloop
  endfacet
  facet normal  -0.000000e+000 -7.618015e-001 -6.478106e-001
    outer loop
      vertex  1.397000e+002  3.592183e+001  3.891684e+002
      vertex  1.524000e+002  3.592183e+001  3.891684e+002
      vertex  1.397000e+002  3.232848e+001  3.933940e+002
    endloop
  endfacet
  facet normal  0.000000e+000 -7.618015e-001 -6.478106e-001
    outer loop
      vertex  1.397000e+002  3.232848e+001  3.933940e+002
      vertex  1.524000e+002  3.592183e+001  3.891684e+002
      vertex  1.524000e+002  3.232848e+001  3.933940e+002
    endloop
  endfacet
  facet normal  -0.000000e+000 -7.429338e-001 -6.693649e-001
    outer loop
      vertex  1.397000e+002  3.232848e+001  3.933940e+002
      vertex  1.524000e+002  3.232848e+001  3.933940e+002
      vertex  1.397000e+002  2.861556e+001  3.975150e+002
    endloop
  endfacet
  facet normal  0.000000e+000 -7.429338e-001 -6.693649e-001
    outer loop
      vertex  1.397000e+002  2.861556e+001  3.975150e+002
      vertex  1.524000e+002  3.232848e+001  3.933940e+002
      vertex  1.524000e+002  2.861556e+001  3.975150e+002
    endloop
  endfacet
  facet normal  -0.000000e+000 -7.234539e-001 -6.903728e-001
    outer loop
      vertex  1.397000e+002  2.861556e+001  3.975150e+002
      vertex  1.524000e+002  2.861556e+001  3.975150e+002
      vertex  1.397000e+002  2.478612e+001  4.015280e+002
    endloop
  endfacet
  facet normal  0.000000e+000 -7.234539e-001 -6.903728e-001
    outer loop
      vertex  1.397000e+002  2.478612e+001  4.015280e+002
      vertex  1.524000e+002  2.861556e+001  3.975150e+002
      vertex  1.524000e+002  2.478612e+001  4.015280e+002
    endloop
  endfacet
  facet normal  0.000000e+000  9.367397e-001  3.500266e-001
    outer loop
      vertex  1.397000e+002  5.687994e+001  3.165348e+002
      vertex  1.524000e+002  5.687994e+001  3.165348e+002
      vertex  1.397000e+002  5.726212e+001  3.155120e+002
    endloop
  endfacet
  facet normal  -0.000000e+000  9.367397e-001  3.500266e-001
    outer loop
      vertex  1.397000e+002  5.726212e+001  3.155120e+002
      vertex  1.524000e+002  5.687994e+001  3.165348e+002
      vertex  1.524000e+002  5.726212e+001  3.155120e+002
    endloop
  endfacet
  facet normal  0.000000e+000  8.803568e-001  4.743119e-001
    outer loop
      vertex  1.397000e+002  5.726212e+001  3.155120e+002
      vertex  1.524000e+002  5.726212e+001  3.155120e+002
      vertex  1.397000e+002  5.778001e+001  3.145508e+002
    endloop
  endfacet
  facet normal  -0.000000e+000  8.803568e-001  4.743119e-001
    outer loop
      vertex  1.397000e+002  5.778001e+001  3.145508e+002
      vertex  1.524000e+002  5.726212e+001  3.155120e+002
      vertex  1.524000e+002  5.778001e+001  3.145508e+002
    endloop
  endfacet
  facet normal  0.000000e+000  8.075721e-001  5.897688e-001
    outer loop
      vertex  1.397000e+002  5.778001e+001  3.145508e+002
      vertex  1.524000e+002  5.778001e+001  3.145508e+002
      vertex  1.397000e+002  5.842397e+001  3.136690e+002
    endloop
  endfacet
  facet normal  -0.000000e+000  8.075721e-001  5.897688e-001
    outer loop
      vertex  1.397000e+002  5.842397e+001  3.136690e+002
      vertex  1.524000e+002  5.778001e+001  3.145508e+002
      vertex  1.524000e+002  5.842397e+001  3.136690e+002
    endloop
  endfacet
  facet normal  0.000000e+000  7.197488e-001  6.942346e-001
    outer loop
      vertex  1.397000e+002  5.842397e+001  3.136690e+002
      vertex  1.524000e+002  5.842397e+001  3.136690e+002
      vertex  1.397000e+002  5.918200e+001  3.128831e+002
    endloop
  endfacet
  facet normal  -0.000000e+000  7.197488e-001  6.942346e-001
    outer loop
      vertex  1.397000e+002  5.918200e+001  3.128831e+002
      vertex  1.524000e+002  5.842397e+001  3.136690e+002
      vertex  1.524000e+002  5.918200e+001  3.128831e+002
    endloop
  endfacet
  facet normal  0.000000e+000  6.185009e-001  7.857840e-001
    outer loop
      vertex  1.397000e+002  5.918200e+001  3.128831e+002
      vertex  1.524000e+002  5.918200e+001  3.128831e+002
      vertex  1.397000e+002  6.003998e+001  3.122078e+002
    endloop
  endfacet
  facet normal  -0.000000e+000  6.185009e-001  7.857840e-001
    outer loop
      vertex  1.397000e+002  6.003998e+001  3.122078e+002
      vertex  1.524000e+002  5.918200e+001  3.128831e+002
      vertex  1.524000e+002  6.003998e+001  3.122078e+002
    endloop
  endfacet
  facet normal  0.000000e+000  5.057477e-001  8.626814e-001
    outer loop
      vertex  1.397000e+002  6.003998e+001  3.122078e+002
      vertex  1.524000e+002  6.003998e+001  3.122078e+002
      vertex  1.397000e+002  6.098192e+001  3.116556e+002
    endloop
  endfacet
  facet normal  -0.000000e+000  5.057477e-001  8.626814e-001
    outer loop
      vertex  1.397000e+002  6.098192e+001  3.116556e+002
      vertex  1.524000e+002  6.003998e+001  3.122078e+002
      vertex  1.524000e+002  6.098192e+001  3.116556e+002
    endloop
  endfacet
  facet normal  0.000000e+000  3.835542e-001  9.235184e-001
    outer loop
      vertex  1.397000e+002  6.098192e+001  3.116556e+002
      vertex  1.524000e+002  6.098192e+001  3.116556e+002
      vertex  1.397000e+002  6.199029e+001  3.112368e+002
    endloop
  endfacet
  facet normal  -0.000000e+000  3.835542e-001  9.235184e-001
    outer loop
      vertex  1.397000e+002  6.199029e+001  3.112368e+002
      vertex  1.524000e+002  6.098192e+001  3.116556e+002
      vertex  1.524000e+002  6.199029e+001  3.112368e+002
    endloop
  endfacet
  facet normal  0.000000e+000  2.542567e-001  9.671368e-001
    outer loop
      vertex  1.397000e+002  6.199029e+001  3.112368e+002
      vertex  1.524000e+002  6.199029e+001  3.112368e+002
      vertex  1.397000e+002  6.304629e+001  3.109592e+002
    endloop
  endfacet
  facet normal  -0.000000e+000  2.542567e-001  9.671368e-001
    outer loop
      vertex  1.397000e+002  6.304629e+001  3.109592e+002
      vertex  1.524000e+002  6.199029e+001  3.112368e+002
      vertex  1.524000e+002  6.304629e+001  3.109592e+002
    endloop
  endfacet
  facet normal  0.000000e+000  1.201836e-001  9.927517e-001
    outer loop
      vertex  1.397000e+002  6.304629e+001  3.109592e+002
      vertex  1.524000e+002  6.304629e+001  3.109592e+002
      vertex  1.397000e+002  6.413025e+001  3.108279e+002
    endloop
  endfacet
  facet normal  -0.000000e+000  1.201836e-001  9.927517e-001
    outer loop
      vertex  1.397000e+002  6.413025e+001  3.108279e+002
      vertex  1.524000e+002  6.304629e+001  3.109592e+002
      vertex  1.524000e+002  6.413025e+001  3.108279e+002
    endloop
  endfacet
  facet normal  0.000000e+000 -1.612694e-002  9.998700e-001
    outer loop
      vertex  1.397000e+002  6.413025e+001  3.108279e+002
      vertex  1.524000e+002  6.413025e+001  3.108279e+002
      vertex  1.397000e+002  6.522198e+001  3.108456e+002
    endloop
  endfacet
  facet normal  0.000000e+000 -1.612694e-002  9.998700e-001
    outer loop
      vertex  1.397000e+002  6.522198e+001  3.108456e+002
      vertex  1.524000e+002  6.413025e+001  3.108279e+002
      vertex  1.524000e+002  6.522198e+001  3.108456e+002
    endloop
  endfacet
  facet normal  0.000000e+000 -1.521013e-001  9.883649e-001
    outer loop
      vertex  1.397000e+002  6.522198e+001  3.108456e+002
      vertex  1.524000e+002  6.522198e+001  3.108456e+002
      vertex  1.397000e+002  6.630116e+001  3.110116e+002
    endloop
  endfacet
  facet normal  0.000000e+000 -1.521013e-001  9.883649e-001
    outer loop
      vertex  1.397000e+002  6.630116e+001  3.110116e+002
      vertex  1.524000e+002  6.522198e+001  3.108456e+002
      vertex  1.524000e+002  6.630116e+001  3.110116e+002
    endloop
  endfacet
  facet normal  0.000000e+000 -2.852824e-001  9.584436e-001
    outer loop
      vertex  1.397000e+002  6.630116e+001  3.110116e+002
      vertex  1.524000e+002  6.630116e+001  3.110116e+002
      vertex  1.397000e+002  6.734766e+001  3.113231e+002
    endloop
  endfacet
  facet normal  0.000000e+000 -2.852824e-001  9.584436e-001
    outer loop
      vertex  1.397000e+002  6.734766e+001  3.113231e+002
      vertex  1.524000e+002  6.630116e+001  3.110116e+002
      vertex  1.524000e+002  6.734766e+001  3.113231e+002
    endloop
  endfacet
  facet normal  0.000000e+000 -4.131232e-001  9.106752e-001
    outer loop
      vertex  1.397000e+002  6.734766e+001  3.113231e+002
      vertex  1.524000e+002  6.734766e+001  3.113231e+002
      vertex  1.397000e+002  6.834201e+001  3.117742e+002
    endloop
  endfacet
  facet normal  0.000000e+000 -4.131232e-001  9.106752e-001
    outer loop
      vertex  1.397000e+002  6.834201e+001  3.117742e+002
      vertex  1.524000e+002  6.734766e+001  3.113231e+002
      vertex  1.524000e+002  6.834201e+001  3.117742e+002
    endloop
  endfacet
  facet normal  0.000000e+000 -5.333030e-001  8.459243e-001
    outer loop
      vertex  1.397000e+002  6.834201e+001  3.117742e+002
      vertex  1.524000e+002  6.834201e+001  3.117742e+002
      vertex  1.397000e+002  6.926566e+001  3.123565e+002
    endloop
  endfacet
  facet normal  0.000000e+000 -5.333030e-001  8.459243e-001
    outer loop
      vertex  1.397000e+002  6.926566e+001  3.123565e+002
      vertex  1.524000e+002  6.834201e+001  3.117742e+002
      vertex  1.524000e+002  6.926566e+001  3.123565e+002
    endloop
  endfacet
  facet normal  0.000000e+000 -6.434926e-001  7.654524e-001
    outer loop
      vertex  1.397000e+002  6.926566e+001  3.123565e+002
      vertex  1.524000e+002  6.926566e+001  3.123565e+002
      vertex  1.397000e+002  7.010143e+001  3.130591e+002
    endloop
  endfacet
  facet normal  0.000000e+000 -6.434926e-001  7.654524e-001
    outer loop
      vertex  1.397000e+002  7.010143e+001  3.130591e+002
      vertex  1.524000e+002  6.926566e+001  3.123565e+002
      vertex  1.524000e+002  7.010143e+001  3.130591e+002
    endloop
  endfacet
  facet normal  0.000000e+000 -7.417474e-001  6.706793e-001
    outer loop
      vertex  1.397000e+002  7.010143e+001  3.130591e+002
      vertex  1.524000e+002  7.010143e+001  3.130591e+002
      vertex  1.397000e+002  7.083374e+001  3.138690e+002
    endloop
  endfacet
  facet normal  0.000000e+000 -7.417474e-001  6.706793e-001
    outer loop
      vertex  1.397000e+002  7.083374e+001  3.138690e+002
      vertex  1.524000e+002  7.010143e+001  3.130591e+002
      vertex  1.524000e+002  7.083374e+001  3.138690e+002
    endloop
  endfacet
  facet normal  0.000000e+000 -8.261573e-001  5.634395e-001
    outer loop
      vertex  1.397000e+002  7.083374e+001  3.138690e+002
      vertex  1.524000e+002  7.083374e+001  3.138690e+002
      vertex  1.397000e+002  7.144895e+001  3.147711e+002
    endloop
  endfacet
  facet normal  0.000000e+000 -8.261573e-001  5.634395e-001
    outer loop
      vertex  1.397000e+002  7.144895e+001  3.147711e+002
      vertex  1.524000e+002  7.083374e+001  3.138690e+002
      vertex  1.524000e+002  7.144895e+001  3.147711e+002
    endloop
  endfacet
  facet normal  0.000000e+000 -8.951806e-001  4.457037e-001
    outer loop
      vertex  1.397000e+002  7.144895e+001  3.147711e+002
      vertex  1.524000e+002  7.144895e+001  3.147711e+002
      vertex  1.397000e+002  7.193560e+001  3.157485e+002
    endloop
  endfacet
  facet normal  0.000000e+000 -8.951806e-001  4.457037e-001
    outer loop
      vertex  1.397000e+002  7.193560e+001  3.157485e+002
      vertex  1.524000e+002  7.144895e+001  3.147711e+002
      vertex  1.524000e+002  7.193560e+001  3.157485e+002
    endloop
  endfacet
  facet normal  0.000000e+000 -9.475382e-001  3.196425e-001
    outer loop
      vertex  1.397000e+002  7.193560e+001  3.157485e+002
      vertex  1.524000e+002  7.193560e+001  3.157485e+002
      vertex  1.397000e+002  7.228461e+001  3.167831e+002
    endloop
  endfacet
  facet normal  0.000000e+000 -9.475382e-001  3.196425e-001
    outer loop
      vertex  1.397000e+002  7.228461e+001  3.167831e+002
      vertex  1.524000e+002  7.193560e+001  3.157485e+002
      vertex  1.524000e+002  7.228461e+001  3.167831e+002
    endloop
  endfacet
  facet normal  0.000000e+000 -9.822351e-001  1.876541e-001
    outer loop
      vertex  1.397000e+002  7.228461e+001  3.167831e+002
      vertex  1.524000e+002  7.228461e+001  3.167831e+002
      vertex  1.397000e+002  7.248951e+001  3.178556e+002
    endloop
  endfacet
  facet normal  0.000000e+000 -9.822351e-001  1.876541e-001
    outer loop
      vertex  1.397000e+002  7.248951e+001  3.178556e+002
      vertex  1.524000e+002  7.228461e+001  3.167831e+002
      vertex  1.524000e+002  7.248951e+001  3.178556e+002
    endloop
  endfacet
  facet normal  0.000000e+000 -9.986390e-001  5.215394e-002
    outer loop
      vertex  1.397000e+002  7.248951e+001  3.178556e+002
      vertex  1.524000e+002  7.248951e+001  3.178556e+002
      vertex  1.397000e+002  7.254646e+001  3.189460e+002
    endloop
  endfacet
  facet normal  0.000000e+000 -9.986390e-001  5.215394e-002
    outer loop
      vertex  1.397000e+002  7.254646e+001  3.189460e+002
      vertex  1.524000e+002  7.248951e+001  3.178556e+002
      vertex  1.524000e+002  7.254646e+001  3.189460e+002
    endloop
  endfacet
  facet normal  -0.000000e+000 -9.964395e-001 -8.431067e-002
    outer loop
      vertex  1.397000e+002  7.254646e+001  3.189460e+002
      vertex  1.524000e+002  7.254646e+001  3.189460e+002
      vertex  1.397000e+002  7.245440e+001  3.200340e+002
    endloop
  endfacet
  facet normal  0.000000e+000 -9.964395e-001 -8.431067e-002
    outer loop
      vertex  1.397000e+002  7.245440e+001  3.200340e+002
      vertex  1.524000e+002  7.254646e+001  3.189460e+002
      vertex  1.524000e+002  7.245440e+001  3.200340e+002
    endloop
  endfacet
  facet normal  -0.000000e+000 -9.756786e-001 -2.192056e-001
    outer loop
      vertex  1.397000e+002  7.245440e+001  3.200340e+002
      vertex  1.524000e+002  7.245440e+001  3.200340e+002
      vertex  1.397000e+002  7.221505e+001  3.210993e+002
    endloop
  endfacet
  facet normal  0.000000e+000 -9.756786e-001 -2.192056e-001
    outer loop
      vertex  1.397000e+002  7.221505e+001  3.210993e+002
      vertex  1.524000e+002  7.245440e+001  3.200340e+002
      vertex  1.524000e+002  7.221505e+001  3.210993e+002
    endloop
  endfacet
  facet normal  -0.000000e+000  9.542599e-001  2.989787e-001
    outer loop
      vertex  1.524000e+002  5.687994e+001  3.165348e+002
      vertex  1.397000e+002  5.687994e+001  3.165348e+002
      vertex  1.524000e+002  5.535857e+001  3.213906e+002
    endloop
  endfacet
  facet normal  0.000000e+000  9.542599e-001  2.989787e-001
    outer loop
      vertex  1.524000e+002  5.535857e+001  3.213906e+002
      vertex  1.397000e+002  5.687994e+001  3.165348e+002
      vertex  1.397000e+002  5.535857e+001  3.213906e+002
    endloop
  endfacet
  facet normal  -0.000000e+000  9.453040e-001  3.261908e-001
    outer loop
      vertex  1.524000e+002  5.535857e+001  3.213906e+002
      vertex  1.397000e+002  5.535857e+001  3.213906e+002
      vertex  1.524000e+002  5.369873e+001  3.262009e+002
    endloop
  endfacet
  facet normal  0.000000e+000  9.453040e-001  3.261908e-001
    outer loop
      vertex  1.524000e+002  5.369873e+001  3.262009e+002
      vertex  1.397000e+002  5.535857e+001  3.213906e+002
      vertex  1.397000e+002  5.369873e+001  3.262009e+002
    endloop
  endfacet
  facet normal  -0.000000e+000  9.355723e-001  3.531351e-001
    outer loop
      vertex  1.524000e+002  5.369873e+001  3.262009e+002
      vertex  1.397000e+002  5.369873e+001  3.262009e+002
      vertex  1.524000e+002  5.190178e+001  3.309616e+002
    endloop
  endfacet
  facet normal  0.000000e+000  9.355723e-001  3.531351e-001
    outer loop
      vertex  1.524000e+002  5.190178e+001  3.309616e+002
      vertex  1.397000e+002  5.369873e+001  3.262009e+002
      vertex  1.397000e+002  5.190178e+001  3.309616e+002
    endloop
  endfacet
  facet normal  -0.000000e+000  9.250724e-001  3.797906e-001
    outer loop
      vertex  1.524000e+002  5.190178e+001  3.309616e+002
      vertex  1.397000e+002  5.190178e+001  3.309616e+002
      vertex  1.524000e+002  4.996920e+001  3.356689e+002
    endloop
  endfacet
  facet normal  0.000000e+000  9.250724e-001  3.797906e-001
    outer loop
      vertex  1.524000e+002  4.996920e+001  3.356689e+002
      vertex  1.397000e+002  5.190178e+001  3.309616e+002
      vertex  1.397000e+002  4.996920e+001  3.356689e+002
    endloop
  endfacet
  facet normal  -0.000000e+000  9.138152e-001  4.061303e-001
    outer loop
      vertex  1.524000e+002  4.996920e+001  3.356689e+002
      vertex  1.397000e+002  4.996920e+001  3.356689e+002
      vertex  1.524000e+002  4.790257e+001  3.403189e+002
    endloop
  endfacet
  facet normal  0.000000e+000  9.138152e-001  4.061303e-001
    outer loop
      vertex  1.524000e+002  4.790257e+001  3.403189e+002
      vertex  1.397000e+002  4.996920e+001  3.356689e+002
      vertex  1.397000e+002  4.790257e+001  3.403189e+002
    endloop
  endfacet
  facet normal  -0.000000e+000  9.018046e-001  4.321442e-001
    outer loop
      vertex  1.524000e+002  4.790257e+001  3.403189e+002
      vertex  1.397000e+002  4.790257e+001  3.403189e+002
      vertex  1.524000e+002  4.570359e+001  3.449077e+002
    endloop
  endfacet
  facet normal  0.000000e+000  9.018046e-001  4.321442e-001
    outer loop
      vertex  1.524000e+002  4.570359e+001  3.449077e+002
      vertex  1.397000e+002  4.790257e+001  3.403189e+002
      vertex  1.397000e+002  4.570359e+001  3.449077e+002
    endloop
  endfacet
  facet normal  -0.000000e+000  8.890569e-001  4.577968e-001
    outer loop
      vertex  1.524000e+002  4.570359e+001  3.449077e+002
      vertex  1.397000e+002  4.570359e+001  3.449077e+002
      vertex  1.524000e+002  4.337406e+001  3.494318e+002
    endloop
  endfacet
  facet normal  0.000000e+000  8.890569e-001  4.577968e-001
    outer loop
      vertex  1.524000e+002  4.337406e+001  3.494318e+002
      vertex  1.397000e+002  4.570359e+001  3.449077e+002
      vertex  1.397000e+002  4.337406e+001  3.494318e+002
    endloop
  endfacet
  facet normal  -0.000000e+000  8.755790e-001  4.830750e-001
    outer loop
      vertex  1.524000e+002  4.337406e+001  3.494318e+002
      vertex  1.397000e+002  4.337406e+001  3.494318e+002
      vertex  1.524000e+002  4.091590e+001  3.538872e+002
    endloop
  endfacet
  facet normal  0.000000e+000  8.755790e-001  4.830750e-001
    outer loop
      vertex  1.524000e+002  4.091590e+001  3.538872e+002
      vertex  1.397000e+002  4.337406e+001  3.494318e+002
      vertex  1.397000e+002  4.091590e+001  3.538872e+002
    endloop
  endfacet
  facet normal  -0.000000e+000  8.613811e-001  5.079591e-001
    outer loop
      vertex  1.524000e+002  4.091590e+001  3.538872e+002
      vertex  1.397000e+002  4.091590e+001  3.538872e+002
      vertex  1.524000e+002  3.833113e+001  3.582704e+002
    endloop
  endfacet
  facet normal  0.000000e+000  8.613811e-001  5.079591e-001
    outer loop
      vertex  1.524000e+002  3.833113e+001  3.582704e+002
      vertex  1.397000e+002  4.091590e+001  3.538872e+002
      vertex  1.397000e+002  3.833113e+001  3.582704e+002
    endloop
  endfacet
  facet normal  -0.000000e+000  8.464789e-001  5.324221e-001
    outer loop
      vertex  1.524000e+002  3.833113e+001  3.582704e+002
      vertex  1.397000e+002  3.833113e+001  3.582704e+002
      vertex  1.524000e+002  3.562186e+001  3.625778e+002
    endloop
  endfacet
  facet normal  0.000000e+000  8.464789e-001  5.324221e-001
    outer loop
      vertex  1.524000e+002  3.562186e+001  3.625778e+002
      vertex  1.397000e+002  3.833113e+001  3.582704e+002
      vertex  1.397000e+002  3.562186e+001  3.625778e+002
    endloop
  endfacet
  facet normal  -0.000000e+000  8.308781e-001  5.564544e-001
    outer loop
      vertex  1.524000e+002  3.562186e+001  3.625778e+002
      vertex  1.397000e+002  3.562186e+001  3.625778e+002
      vertex  1.524000e+002  3.279031e+001  3.668057e+002
    endloop
  endfacet
  facet normal  0.000000e+000  8.308781e-001  5.564544e-001
    outer loop
      vertex  1.524000e+002  3.279031e+001  3.668057e+002
      vertex  1.397000e+002  3.562186e+001  3.625778e+002
      vertex  1.397000e+002  3.279031e+001  3.668057e+002
    endloop
  endfacet
  facet normal  -0.000000e+000  8.145993e-001  5.800241e-001
    outer loop
      vertex  1.524000e+002  3.279031e+001  3.668057e+002
      vertex  1.397000e+002  3.279031e+001  3.668057e+002
      vertex  1.524000e+002  2.983882e+001  3.709509e+002
    endloop
  endfacet
  facet normal  0.000000e+000  8.145993e-001  5.800241e-001
    outer loop
      vertex  1.524000e+002  2.983882e+001  3.709509e+002
      vertex  1.397000e+002  3.279031e+001  3.668057e+002
      vertex  1.397000e+002  2.983882e+001  3.709509e+002
    endloop
  endfacet
  facet normal  -0.000000e+000  7.976506e-001  6.031197e-001
    outer loop
      vertex  1.524000e+002  2.983882e+001  3.709509e+002
      vertex  1.397000e+002  2.983882e+001  3.709509e+002
      vertex  1.524000e+002  2.676980e+001  3.750098e+002
    endloop
  endfacet
  facet normal  0.000000e+000  7.976506e-001  6.031197e-001
    outer loop
      vertex  1.524000e+002  2.676980e+001  3.750098e+002
      vertex  1.397000e+002  2.983882e+001  3.709509e+002
      vertex  1.397000e+002  2.676980e+001  3.750098e+002
    endloop
  endfacet
  facet normal  -0.000000e+000  7.800451e-001  6.257233e-001
    outer loop
      vertex  1.524000e+002  2.676980e+001  3.750098e+002
      vertex  1.397000e+002  2.676980e+001  3.750098e+002
      vertex  1.524000e+002  2.358578e+001  3.789791e+002
    endloop
  endfacet
  facet normal  0.000000e+000  7.800451e-001  6.257233e-001
    outer loop
      vertex  1.524000e+002  2.358578e+001  3.789791e+002
      vertex  1.397000e+002  2.676980e+001  3.750098e+002
      vertex  1.397000e+002  2.358578e+001  3.789791e+002
    endloop
  endfacet
  facet normal  -0.000000e+000  7.618013e-001  6.478106e-001
    outer loop
      vertex  1.524000e+002  2.358578e+001  3.789791e+002
      vertex  1.397000e+002  2.358578e+001  3.789791e+002
      vertex  1.524000e+002  2.028936e+001  3.828555e+002
    endloop
  endfacet
  facet normal  0.000000e+000  7.618013e-001  6.478106e-001
    outer loop
      vertex  1.524000e+002  2.028936e+001  3.828555e+002
      vertex  1.397000e+002  2.358578e+001  3.789791e+002
      vertex  1.397000e+002  2.028936e+001  3.828555e+002
    endloop
  endfacet
  facet normal  -0.000000e+000  7.429329e-001  6.693659e-001
    outer loop
      vertex  1.524000e+002  2.028936e+001  3.828555e+002
      vertex  1.397000e+002  2.028936e+001  3.828555e+002
      vertex  1.524000e+002  1.688326e+001  3.866360e+002
    endloop
  endfacet
  facet normal  0.000000e+000  7.429329e-001  6.693659e-001
    outer loop
      vertex  1.524000e+002  1.688326e+001  3.866360e+002
      vertex  1.397000e+002  2.028936e+001  3.828555e+002
      vertex  1.397000e+002  1.688326e+001  3.866360e+002
    endloop
  endfacet
  facet normal  -0.000000e+000  7.234569e-001  6.903697e-001
    outer loop
      vertex  1.524000e+002  1.688326e+001  3.866360e+002
      vertex  1.397000e+002  1.688326e+001  3.866360e+002
      vertex  1.524000e+002  1.337026e+001  3.903174e+002
    endloop
  endfacet
  facet normal  0.000000e+000  7.234569e-001  6.903697e-001
    outer loop
      vertex  1.524000e+002  1.337026e+001  3.903174e+002
      vertex  1.397000e+002  1.688326e+001  3.866360e+002
      vertex  1.397000e+002  1.337026e+001  3.903174e+002
    endloop
  endfacet
  facet normal  -0.000000e+000 -6.640203e-001 -7.477145e-001
    outer loop
      vertex  1.397000e+002  2.478612e+001  4.015280e+002
      vertex  1.524000e+002  2.478612e+001  4.015280e+002
      vertex  1.397000e+002  2.396970e+001  4.022530e+002
    endloop
  endfacet
  facet normal  0.000000e+000 -6.640203e-001 -7.477145e-001
    outer loop
      vertex  1.397000e+002  2.396970e+001  4.022530e+002
      vertex  1.524000e+002  2.478612e+001  4.015280e+002
      vertex  1.524000e+002  2.396970e+001  4.022530e+002
    endloop
  endfacet
  facet normal  -0.000000e+000 -5.560057e-001 -8.311785e-001
    outer loop
      vertex  1.397000e+002  2.396970e+001  4.022530e+002
      vertex  1.524000e+002  2.396970e+001  4.022530e+002
      vertex  1.397000e+002  2.306216e+001  4.028601e+002
    endloop
  endfacet
  facet normal  0.000000e+000 -5.560057e-001 -8.311785e-001
    outer loop
      vertex  1.397000e+002  2.306216e+001  4.028601e+002
      vertex  1.524000e+002  2.396970e+001  4.022530e+002
      vertex  1.524000e+002  2.306216e+001  4.028601e+002
    endloop
  endfacet
  facet normal  -0.000000e+000 -4.376616e-001 -8.991397e-001
    outer loop
      vertex  1.397000e+002  2.306216e+001  4.028601e+002
      vertex  1.524000e+002  2.306216e+001  4.028601e+002
      vertex  1.397000e+002  2.208040e+001  4.033380e+002
    endloop
  endfacet
  facet normal  0.000000e+000 -4.376616e-001 -8.991397e-001
    outer loop
      vertex  1.397000e+002  2.208040e+001  4.033380e+002
      vertex  1.524000e+002  2.306216e+001  4.028601e+002
      vertex  1.524000e+002  2.208040e+001  4.033380e+002
    endloop
  endfacet
  facet normal  -0.000000e+000 -3.111362e-001 -9.503654e-001
    outer loop
      vertex  1.397000e+002  2.208040e+001  4.033380e+002
      vertex  1.524000e+002  2.208040e+001  4.033380e+002
      vertex  1.397000e+002  2.104272e+001  4.036777e+002
    endloop
  endfacet
  facet normal  0.000000e+000 -3.111362e-001 -9.503654e-001
    outer loop
      vertex  1.397000e+002  2.104272e+001  4.036777e+002
      vertex  1.524000e+002  2.208040e+001  4.033380e+002
      vertex  1.524000e+002  2.104272e+001  4.036777e+002
    endloop
  endfacet
  facet normal  -0.000000e+000 -1.788495e-001 -9.838765e-001
    outer loop
      vertex  1.397000e+002  2.104272e+001  4.036777e+002
      vertex  1.524000e+002  2.104272e+001  4.036777e+002
      vertex  1.397000e+002  1.996845e+001  4.038730e+002
    endloop
  endfacet
  facet normal  0.000000e+000 -1.788495e-001 -9.838765e-001
    outer loop
      vertex  1.397000e+002  1.996845e+001  4.038730e+002
      vertex  1.524000e+002  2.104272e+001  4.036777e+002
      vertex  1.524000e+002  1.996845e+001  4.038730e+002
    endloop
  endfacet
  facet normal  -0.000000e+000 -4.321003e-002 -9.990659e-001
    outer loop
      vertex  1.397000e+002  1.996845e+001  4.038730e+002
      vertex  1.524000e+002  1.996845e+001  4.038730e+002
      vertex  1.397000e+002  1.887759e+001  4.039201e+002
    endloop
  endfacet
  facet normal  0.000000e+000 -4.321003e-002 -9.990659e-001
    outer loop
      vertex  1.397000e+002  1.887759e+001  4.039201e+002
      vertex  1.524000e+002  1.996845e+001  4.038730e+002
      vertex  1.524000e+002  1.887759e+001  4.039201e+002
    endloop
  endfacet
  facet normal  0.000000e+000  9.323990e-002 -9.956437e-001
    outer loop
      vertex  1.397000e+002  1.887759e+001  4.039201e+002
      vertex  1.524000e+002  1.887759e+001  4.039201e+002
      vertex  1.397000e+002  1.779047e+001  4.038183e+002
    endloop
  endfacet
  facet normal  0.000000e+000  9.323990e-002 -9.956437e-001
    outer loop
      vertex  1.397000e+002  1.779047e+001  4.038183e+002
      vertex  1.524000e+002  1.887759e+001  4.039201e+002
      vertex  1.524000e+002  1.779047e+001  4.038183e+002
    endloop
  endfacet
  facet normal  0.000000e+000  2.279296e-001 -9.736776e-001
    outer loop
      vertex  1.397000e+002  1.779047e+001  4.038183e+002
      vertex  1.524000e+002  1.779047e+001  4.038183e+002
      vertex  1.397000e+002  1.672733e+001  4.035695e+002
    endloop
  endfacet
  facet normal  0.000000e+000  2.279296e-001 -9.736776e-001
    outer loop
      vertex  1.397000e+002  1.672733e+001  4.035695e+002
      vertex  1.524000e+002  1.779047e+001  4.038183e+002
      vertex  1.524000e+002  1.672733e+001  4.035695e+002
    endloop
  endfacet
  facet normal  0.000000e+000  3.583986e-001 -9.335687e-001
    outer loop
      vertex  1.397000e+002  1.672733e+001  4.035695e+002
      vertex  1.524000e+002  1.672733e+001  4.035695e+002
      vertex  1.397000e+002  1.570799e+001  4.031781e+002
    endloop
  endfacet
  facet normal  0.000000e+000  3.583986e-001 -9.335687e-001
    outer loop
      vertex  1.397000e+002  1.570799e+001  4.031781e+002
      vertex  1.524000e+002  1.672733e+001  4.035695e+002
      vertex  1.524000e+002  1.570799e+001  4.031781e+002
    endloop
  endfacet
  facet normal  0.000000e+000  4.821860e-001 -8.760688e-001
    outer loop
      vertex  1.397000e+002  1.570799e+001  4.031781e+002
      vertex  1.524000e+002  1.570799e+001  4.031781e+002
      vertex  1.397000e+002  1.475143e+001  4.026516e+002
    endloop
  endfacet
  facet normal  0.000000e+000  4.821860e-001 -8.760688e-001
    outer loop
      vertex  1.397000e+002  1.475143e+001  4.026516e+002
      vertex  1.524000e+002  1.570799e+001  4.031781e+002
      vertex  1.524000e+002  1.475143e+001  4.026516e+002
    endloop
  endfacet
  facet normal  0.000000e+000  5.969965e-001 -8.022438e-001
    outer loop
      vertex  1.397000e+002  1.475143e+001  4.026516e+002
      vertex  1.524000e+002  1.475143e+001  4.026516e+002
      vertex  1.397000e+002  1.387546e+001  4.019998e+002
    endloop
  endfacet
  facet normal  0.000000e+000  5.969965e-001 -8.022438e-001
    outer loop
      vertex  1.397000e+002  1.387546e+001  4.019998e+002
      vertex  1.524000e+002  1.475143e+001  4.026516e+002
      vertex  1.524000e+002  1.387546e+001  4.019998e+002
    endloop
  endfacet
  facet normal  0.000000e+000  7.006663e-001 -7.134891e-001
    outer loop
      vertex  1.397000e+002  1.387546e+001  4.019998e+002
      vertex  1.524000e+002  1.387546e+001  4.019998e+002
      vertex  1.397000e+002  1.309642e+001  4.012347e+002
    endloop
  endfacet
  facet normal  0.000000e+000  7.006663e-001 -7.134891e-001
    outer loop
      vertex  1.397000e+002  1.309642e+001  4.012347e+002
      vertex  1.524000e+002  1.387546e+001  4.019998e+002
      vertex  1.524000e+002  1.309642e+001  4.012347e+002
    endloop
  endfacet
  facet normal  0.000000e+000  7.912878e-001 -6.114438e-001
    outer loop
      vertex  1.397000e+002  1.309642e+001  4.012347e+002
      vertex  1.524000e+002  1.309642e+001  4.012347e+002
      vertex  1.397000e+002  1.242880e+001  4.003708e+002
    endloop
  endfacet
  facet normal  0.000000e+000  7.912878e-001 -6.114438e-001
    outer loop
      vertex  1.397000e+002  1.242880e+001  4.003708e+002
      vertex  1.524000e+002  1.309642e+001  4.012347e+002
      vertex  1.524000e+002  1.242880e+001  4.003708e+002
    endloop
  endfacet
  facet normal  0.000000e+000  8.671755e-001 -4.980028e-001
    outer loop
      vertex  1.397000e+002  1.242880e+001  4.003708e+002
      vertex  1.524000e+002  1.242880e+001  4.003708e+002
      vertex  1.397000e+002  1.188505e+001  3.994239e+002
    endloop
  endfacet
  facet normal  0.000000e+000  8.671755e-001 -4.980028e-001
    outer loop
      vertex  1.397000e+002  1.188505e+001  3.994239e+002
      vertex  1.524000e+002  1.242880e+001  4.003708e+002
      vertex  1.524000e+002  1.188505e+001  3.994239e+002
    endloop
  endfacet
  facet normal  0.000000e+000  9.269140e-001 -3.752740e-001
    outer loop
      vertex  1.397000e+002  1.188505e+001  3.994239e+002
      vertex  1.524000e+002  1.188505e+001  3.994239e+002
      vertex  1.397000e+002  1.147529e+001  3.984118e+002
    endloop
  endfacet
  facet normal  0.000000e+000  9.269140e-001 -3.752740e-001
    outer loop
      vertex  1.397000e+002  1.147529e+001  3.984118e+002
      vertex  1.524000e+002  1.188505e+001  3.994239e+002
      vertex  1.524000e+002  1.147529e+001  3.984118e+002
    endloop
  endfacet
  facet normal  0.000000e+000  9.693794e-001 -2.455678e-001
    outer loop
      vertex  1.397000e+002  1.147529e+001  3.984118e+002
      vertex  1.524000e+002  1.147529e+001  3.984118e+002
      vertex  1.397000e+002  1.120716e+001  3.973534e+002
    endloop
  endfacet
  facet normal  0.000000e+000  9.693794e-001 -2.455678e-001
    outer loop
      vertex  1.397000e+002  1.120716e+001  3.973534e+002
      vertex  1.524000e+002  1.147529e+001  3.984118e+002
      vertex  1.524000e+002  1.120716e+001  3.973534e+002
    endloop
  endfacet
  facet normal  0.000000e+000  9.937889e-001 -1.112814e-001
    outer loop
      vertex  1.397000e+002  1.120716e+001  3.973534e+002
      vertex  1.524000e+002  1.120716e+001  3.973534e+002
      vertex  1.397000e+002  1.108566e+001  3.962683e+002
    endloop
  endfacet
  facet normal  0.000000e+000  9.937889e-001 -1.112814e-001
    outer loop
      vertex  1.397000e+002  1.108566e+001  3.962683e+002
      vertex  1.524000e+002  1.120716e+001  3.973534e+002
      vertex  1.524000e+002  1.108566e+001  3.962683e+002
    endloop
  endfacet
  facet normal  0.000000e+000  9.996856e-001  2.507547e-002
    outer loop
      vertex  1.397000e+002  1.108566e+001  3.962683e+002
      vertex  1.524000e+002  1.108566e+001  3.962683e+002
      vertex  1.397000e+002  1.111304e+001  3.951768e+002
    endloop
  endfacet
  facet normal  -0.000000e+000  9.996856e-001  2.507547e-002
    outer loop
      vertex  1.397000e+002  1.111304e+001  3.951768e+002
      vertex  1.524000e+002  1.108566e+001  3.962683e+002
      vertex  1.524000e+002  1.111304e+001  3.951768e+002
    endloop
  endfacet
  facet normal  0.000000e+000  9.869601e-001  1.609650e-001
    outer loop
      vertex  1.397000e+002  1.111304e+001  3.951768e+002
      vertex  1.524000e+002  1.111304e+001  3.951768e+002
      vertex  1.397000e+002  1.128879e+001  3.940991e+002
    endloop
  endfacet
  facet normal  -0.000000e+000  9.869601e-001  1.609650e-001
    outer loop
      vertex  1.397000e+002  1.128879e+001  3.940991e+002
      vertex  1.524000e+002  1.111304e+001  3.951768e+002
      vertex  1.524000e+002  1.128879e+001  3.940991e+002
    endloop
  endfacet
  facet normal  0.000000e+000  9.558493e-001  2.938572e-001
    outer loop
      vertex  1.397000e+002  1.128879e+001  3.940991e+002
      vertex  1.524000e+002  1.128879e+001  3.940991e+002
      vertex  1.397000e+002  1.160964e+001  3.930555e+002
    endloop
  endfacet
  facet normal  -0.000000e+000  9.558493e-001  2.938572e-001
    outer loop
      vertex  1.397000e+002  1.160964e+001  3.930555e+002
      vertex  1.524000e+002  1.128879e+001  3.940991e+002
      vertex  1.524000e+002  1.160964e+001  3.930555e+002
    endloop
  endfacet
  facet normal  0.000000e+000  9.069337e-001  4.212734e-001
    outer loop
      vertex  1.397000e+002  1.160964e+001  3.930555e+002
      vertex  1.524000e+002  1.160964e+001  3.930555e+002
      vertex  1.397000e+002  1.206963e+001  3.920652e+002
    endloop
  endfacet
  facet normal  -0.000000e+000  9.069337e-001  4.212734e-001
    outer loop
      vertex  1.397000e+002  1.206963e+001  3.920652e+002
      vertex  1.524000e+002  1.160964e+001  3.930555e+002
      vertex  1.524000e+002  1.206963e+001  3.920652e+002
    endloop
  endfacet
  facet normal  0.000000e+000  8.411203e-001  5.408481e-001
    outer loop
      vertex  1.397000e+002  1.206963e+001  3.920652e+002
      vertex  1.524000e+002  1.206963e+001  3.920652e+002
      vertex  1.397000e+002  1.266016e+001  3.911468e+002
    endloop
  endfacet
  facet normal  -0.000000e+000  8.411203e-001  5.408481e-001
    outer loop
      vertex  1.397000e+002  1.266016e+001  3.911468e+002
      vertex  1.524000e+002  1.206963e+001  3.920652e+002
      vertex  1.524000e+002  1.266016e+001  3.911468e+002
    endloop
  endfacet
  facet normal  0.000000e+000  7.596428e-001  6.503406e-001
    outer loop
      vertex  1.397000e+002  1.266016e+001  3.911468e+002
      vertex  1.524000e+002  1.266016e+001  3.911468e+002
      vertex  1.397000e+002  1.337026e+001  3.903174e+002
    endloop
  endfacet
  facet normal  -0.000000e+000  7.596428e-001  6.503406e-001
    outer loop
      vertex  1.397000e+002  1.337026e+001  3.903174e+002
      vertex  1.524000e+002  1.266016e+001  3.911468e+002
      vertex  1.524000e+002  1.337026e+001  3.903174e+002
    endloop
  endfacet
  facet normal  0.000000e+000 -1.000000e+000  0.000000e+000
    outer loop
      vertex  1.524000e+002 -1.524000e+002  4.699000e+002
      vertex  1.397000e+002 -1.524000e+002  4.699000e+002
      vertex  1.524000e+002 -1.524000e+002  1.270000e+001
    endloop
  endfacet
  facet normal  0.000000e+000 -1.000000e+000  0.000000e+000
    outer loop
      vertex  1.524000e+002 -1.524000e+002  1.270000e+001
      vertex  1.397000e+002 -1.524000e+002  4.699000e+002
      vertex  1.397000e+002 -1.524000e+002  1.270000e+001
    endloop
  endfacet
  facet normal  0.000000e+000  0.000000e+000 -1.000000e+000
    outer loop
      vertex  1.524000e+002 -1.524000e+002  1.270000e+001
      vertex  1.397000e+002 -1.524000e+002  1.270000e+001
      vertex  1.524000e+002  1.524000e+002  1.270000e+001
    endloop
  endfacet
  facet normal  -0.000000e+000  0.000000e+000 -1.000000e+000
    outer loop
      vertex  1.524000e+002  1.524000e+002  1.270000e+001
      vertex  1.397000e+002 -1.524000e+002  1.270000e+001
      vertex  1.397000e+002  1.524000e+002  1.270000e+001
    endloop
  endfacet
  facet normal  0.000000e+000  1.000000e+000  0.000000e+000
    outer loop
      vertex  1.524000e+002  1.524000e+002  1.270000e+001
      vertex  1.397000e+002  1.524000e+002  1.270000e+001
      vertex  1.524000e+002  1.524000e+002  4.699000e+002
    endloop
  endfacet
  facet normal  0.000000e+000  1.000000e+000  0.000000e+000
    outer loop
      vertex  1.524000e+002  1.524000e+002  4.699000e+002
      vertex  1.397000e+002  1.524000e+002  1.270000e+001
      vertex  1.397000e+002  1.524000e+002  4.699000e+002
    endloop
  endfacet
  facet normal  -0.000000e+000  0.000000e+000  1.000000e+000
    outer loop
      vertex  1.524000e+002  1.524000e+002  4.699000e+002
      vertex  1.397000e+002  1.524000e+002  4.699000e+002
      vertex  1.524000e+002 -1.524000e+002  4.699000e+002
    endloop
  endfacet
  facet normal  0.000000e+000  0.000000e+000  1.000000e+000
    outer loop
      vertex  1.524000e+002 -1.524000e+002  4.699000e+002
      vertex  1.397000e+002  1.524000e+002  4.699000e+002
      vertex  1.397000e+002 -1.524000e+002  4.699000e+002
    endloop
  endfacet
endsolid CATIA STL
